<?xml version="1.0" encoding="UTF-8"?>
<svg version="1.1" xmlns="http://www.w3.org/2000/svg" width="320" height="87">
<path d="M0 0 C1.29292969 -0.00257812 2.58585937 -0.00515625 3.91796875 -0.0078125 C4.59263184 -0.00362305 5.26729492 0.00056641 5.96240234 0.00488281 C8.02341157 0.0155843 10.08354919 0.00498557 12.14453125 -0.0078125 C13.43746094 -0.00523438 14.73039062 -0.00265625 16.0625 0 C17.25423828 0.00225586 18.44597656 0.00451172 19.67382812 0.00683594 C22.53125 0.265625 22.53125 0.265625 24.53125 2.265625 C26.70179062 2.55208091 26.70179062 2.55208091 29.26293945 2.47631836 C30.79702705 2.47010216 30.79702705 2.47010216 32.36210632 2.46376038 C34.07971916 2.44109352 34.07971916 2.44109352 35.83203125 2.41796875 C37.05199295 2.40966537 38.27195465 2.401362 39.52888489 2.39280701 C42.30566411 2.37346178 45.08227434 2.34708849 47.85894775 2.31610107 C51.99297592 2.27007175 56.12703186 2.23478338 60.26118279 2.20182228 C70.76069397 2.11804682 81.25984655 2.01043911 91.7590332 1.89331055 C96.79587767 1.83734791 101.83276521 1.78752552 106.86968517 1.73890781 C110.77543464 1.70014485 114.68112714 1.65703434 118.58681679 1.61268425 C120.44762775 1.59231231 122.30845753 1.57359084 124.16930199 1.55655098 C126.73818837 1.5326299 129.30693121 1.50258735 131.87573242 1.47094727 C132.64166214 1.4651918 133.40759186 1.45943634 134.19673157 1.45350647 C137.65522131 1.7134948 137.65522131 1.7134948 140.53125 0.265625 C142.60656739 0.1609242 144.68548172 0.12706247 146.76342773 0.12036133 C147.4138504 0.11700272 148.06427307 0.1136441 148.73440552 0.11018372 C150.89457077 0.10064832 153.05465873 0.09872931 155.21484375 0.09765625 C156.71078016 0.09444542 158.20671624 0.09108149 159.70265198 0.08757019 C162.84254688 0.08157241 165.98241423 0.07973095 169.12231445 0.08032227 C173.15216682 0.08042392 177.1818431 0.06677168 181.21165371 0.04955006 C184.30252397 0.03844897 187.39335142 0.03640247 190.48423958 0.03693199 C191.970242 0.03574901 193.45624543 0.03130954 194.94222832 0.02359962 C197.01817135 0.01383774 199.09372892 0.01666242 201.16967773 0.02270508 C202.9438633 0.02056755 202.9438633 0.02056755 204.75389099 0.01838684 C207.53125 0.265625 207.53125 0.265625 209.53125 2.265625 C212.51914869 2.38739821 215.42236165 2.40096547 218.40625 2.328125 C233.21719961 2.13931686 233.21719961 2.13931686 240.53125 3.265625 C240.86125 3.595625 241.19125 3.925625 241.53125 4.265625 C243.88112262 4.50090273 246.23681039 4.67948917 248.59375 4.828125 C250.52927734 4.95380859 250.52927734 4.95380859 252.50390625 5.08203125 C254.00244141 5.17291016 254.00244141 5.17291016 255.53125 5.265625 C255.86125 6.585625 256.19125 7.905625 256.53125 9.265625 C258.51125 9.760625 258.51125 9.760625 260.53125 10.265625 C260.53125 11.585625 260.53125 12.905625 260.53125 14.265625 C262.18125 14.595625 263.83125 14.925625 265.53125 15.265625 C265.53125 16.585625 265.53125 17.905625 265.53125 19.265625 C266.85125 19.265625 268.17125 19.265625 269.53125 19.265625 C269.21875 21.203125 269.21875 21.203125 268.53125 23.265625 C267.54125 23.595625 266.55125 23.925625 265.53125 24.265625 C265.53125 28.225625 265.53125 32.185625 265.53125 36.265625 C264.21125 36.925625 262.89125 37.585625 261.53125 38.265625 C260.82452794 41.37493441 260.82452794 41.37493441 260.78125 44.890625 C260.72453125 46.07914063 260.6678125 47.26765625 260.609375 48.4921875 C260.58359375 49.40742187 260.5578125 50.32265625 260.53125 51.265625 C262.18125 51.265625 263.83125 51.265625 265.53125 51.265625 C265.86125 57.205625 266.19125 63.145625 266.53125 69.265625 C264.55125 68.935625 262.57125 68.605625 260.53125 68.265625 C260.53125 70.575625 260.53125 72.885625 260.53125 75.265625 C258.88125 75.265625 257.23125 75.265625 255.53125 75.265625 C255.53125 75.925625 255.53125 76.585625 255.53125 77.265625 C253.88125 77.265625 252.23125 77.265625 250.53125 77.265625 C250.53125 78.255625 250.53125 79.245625 250.53125 80.265625 C248.88125 80.265625 247.23125 80.265625 245.53125 80.265625 C245.53125 80.925625 245.53125 81.585625 245.53125 82.265625 C244.21125 82.265625 242.89125 82.265625 241.53125 82.265625 C241.53125 82.925625 241.53125 83.585625 241.53125 84.265625 C239.88125 84.265625 238.23125 84.265625 236.53125 84.265625 C236.20125 85.255625 235.87125 86.245625 235.53125 87.265625 C191.64125 87.265625 147.75125 87.265625 102.53125 87.265625 C102.20125 86.275625 101.87125 85.285625 101.53125 84.265625 C100.54125 84.265625 99.55125 84.265625 98.53125 84.265625 C98.53125 85.255625 98.53125 86.245625 98.53125 87.265625 C59.26125 87.265625 19.99125 87.265625 -20.46875 87.265625 C-20.79875 86.275625 -21.12875 85.285625 -21.46875 84.265625 C-24.43875 84.265625 -27.40875 84.265625 -30.46875 84.265625 C-30.46875 83.605625 -30.46875 82.945625 -30.46875 82.265625 C-33.76875 82.265625 -37.06875 82.265625 -40.46875 82.265625 C-40.46875 79.955625 -40.46875 77.645625 -40.46875 75.265625 C-42.11875 74.935625 -43.76875 74.605625 -45.46875 74.265625 C-45.46875 72.285625 -45.46875 70.305625 -45.46875 68.265625 C-46.78875 68.265625 -48.10875 68.265625 -49.46875 68.265625 C-49.46875 53.415625 -49.46875 38.565625 -49.46875 23.265625 C-48.14875 23.265625 -46.82875 23.265625 -45.46875 23.265625 C-45.46875 21.285625 -45.46875 19.305625 -45.46875 17.265625 C-43.81875 16.935625 -42.16875 16.605625 -40.46875 16.265625 C-40.46875 15.605625 -40.46875 14.945625 -40.46875 14.265625 C-38.81875 14.265625 -37.16875 14.265625 -35.46875 14.265625 C-35.46875 13.605625 -35.46875 12.945625 -35.46875 12.265625 C-33.81875 12.265625 -32.16875 12.265625 -30.46875 12.265625 C-30.46875 11.605625 -30.46875 10.945625 -30.46875 10.265625 C-27.05043085 7.7263022 -24.71098102 6.9020052 -20.46875 7.265625 C-20.46875 6.605625 -20.46875 5.945625 -20.46875 5.265625 C-19.14875 5.265625 -17.82875 5.265625 -16.46875 5.265625 C-16.46875 4.605625 -16.46875 3.945625 -16.46875 3.265625 C-15.19 3.141875 -13.91125 3.018125 -12.59375 2.890625 C-7.61480065 2.40879119 -5.40637538 0.01023381 0 0 Z " fill="#32393A" transform="translate(49.46875,-0.265625)"/>
<path d="M0 0 C0 0.66 0 1.32 0 2 C0.66 2 1.32 2 2 2 C2 2.66 2 3.32 2 4 C3.65 4 5.3 4 7 4 C7 4.66 7 5.32 7 6 C5.35 6 3.7 6 2 6 C2 6.66 2 7.32 2 8 C0.35 8 -1.3 8 -3 8 C-3 8.99 -3 9.98 -3 11 C-4.32 11 -5.64 11 -7 11 C-7 11.66 -7 12.32 -7 13 C-8.65 13 -10.3 13 -12 13 C-12 13.66 -12 14.32 -12 15 C-14.97 15 -17.94 15 -21 15 C-21 16.32 -21 17.64 -21 19 C-22.65 19 -24.3 19 -26 19 C-26 22.3 -26 25.6 -26 29 C-27.65 29 -29.3 29 -31 29 C-31 37.25 -31 45.5 -31 54 C-26.38 54 -21.76 54 -17 54 C-17 54.66 -17 55.32 -17 56 C-20.3 56 -23.6 56 -27 56 C-27 56.66 -27 57.32 -27 58 C-28.32 58 -29.64 58 -31 58 C-31 59.98 -31 61.96 -31 64 C-29.68 64 -28.36 64 -27 64 C-27 64.66 -27 65.32 -27 66 C-25.02 66 -23.04 66 -21 66 C-21 68.97 -21 71.94 -21 75 C-19.68 75 -18.36 75 -17 75 C-17 75.66 -17 76.32 -17 77 C-8.75 77 -0.5 77 8 77 C8.33 76.34 8.66 75.68 9 75 C9 75.66 9 76.32 9 77 C16.92 76.505 16.92 76.505 25 76 C25.33 76.99 25.66 77.98 26 79 C27.32 79 28.64 79 30 79 C30.33 79.66 30.66 80.32 31 81 C34.47914829 82.30526193 38.02369725 82.12932174 41.69921875 82.1328125 C42.99021484 82.13410156 44.28121094 82.13539062 45.61132812 82.13671875 C46.61401733 82.13357666 46.61401733 82.13357666 47.63696289 82.13037109 C49.69099215 82.12499085 51.74480539 82.13034208 53.79882812 82.13671875 C55.72952148 82.13478516 55.72952148 82.13478516 57.69921875 82.1328125 C58.88346436 82.13168457 60.06770996 82.13055664 61.2878418 82.12939453 C63.91544 82.30876211 63.91544 82.30876211 65 81 C66.34267413 80.91368126 67.68974322 80.89293527 69.03515625 80.90234375 C69.84404297 80.90556641 70.65292969 80.90878906 71.48632812 80.91210938 C72.33646484 80.92048828 73.18660156 80.92886719 74.0625 80.9375 C74.91650391 80.94201172 75.77050781 80.94652344 76.65039062 80.95117188 C78.76695663 80.96299627 80.88348685 80.98093231 83 81 C83 80.34 83 79.68 83 79 C83 76.66666667 83 74.33333333 83 72 C84.65 72 86.3 72 88 72 C88 73.65 88 75.3 88 77 C95.92 77 103.84 77 112 77 C112 77.66 112 78.32 112 79 C113.32 79 114.64 79 116 79 C116 80.32 116 81.64 116 83 C119.0836642 82.86068862 122.16683417 82.71240719 125.25 82.5625 C126.12269531 82.52318359 126.99539062 82.48386719 127.89453125 82.44335938 C128.73886719 82.40146484 129.58320313 82.35957031 130.453125 82.31640625 C131.22817383 82.27974854 132.00322266 82.24309082 132.80175781 82.20532227 C134.94925792 82.07369891 134.94925792 82.07369891 136.7532959 81.4942627 C139.59549977 80.86899329 142.23443618 80.8805578 145.14550781 80.88647461 C146.38649231 80.88655014 147.62747681 80.88662567 148.90606689 80.88670349 C150.25508667 80.89180969 151.60410604 80.89702568 152.953125 80.90234375 C154.33746286 80.90420976 155.72180138 80.9056328 157.10614014 80.90663147 C160.74261308 80.91044227 164.37904582 80.92026025 168.01550293 80.93133545 C171.72907976 80.9415805 175.4426631 80.94613571 179.15625 80.95117188 C186.43751829 80.96188384 193.7187535 80.97894296 201 81 C201 80.34 201 79.68 201 79 C199.68 79 198.36 79 197 79 C196.67 77.02 196.34 75.04 196 73 C196.99 72.67 197.98 72.34 199 72 C199 71.34 199 70.68 199 70 C198.01 70 197.02 70 196 70 C196 69.34 196 68.68 196 68 C197.65 68 199.3 68 201 68 C201.33 71.63 201.66 75.26 202 79 C203.32 78.34 204.64 77.68 206 77 C208.39086914 76.6652832 208.39086914 76.6652832 211.03515625 76.55078125 C212.01033203 76.50759766 212.98550781 76.46441406 213.99023438 76.41992188 C215.00408203 76.38447266 216.01792969 76.34902344 217.0625 76.3125 C218.04927734 76.26544922 219.03605469 76.21839844 220.05273438 76.16992188 C226.78519075 75.90097634 233.30867305 76.22618426 240 77 C240 76.34 240 75.68 240 75 C241.32 75 242.64 75 244 75 C244 74.34 244 73.68 244 73 C245.65 73 247.3 73 249 73 C249 72.01 249 71.02 249 70 C250.65 70 252.3 70 254 70 C254 69.34 254 68.68 254 68 C255.32 68 256.64 68 258 68 C258.33 67.01 258.66 66.02 259 65 C260.32 65 261.64 65 263 65 C263 64.34 263 63.68 263 63 C260.03 63 257.06 63 254 63 C254 62.34 254 61.68 254 61 C255.65 61 257.3 61 259 61 C259 60.34 259 59.68 259 59 C260.32 59 261.64 59 263 59 C263 58.34 263 57.68 263 57 C265.64 56.67 268.28 56.34 271 56 C271 53.69 271 51.38 271 49 C271.99 49 272.98 49 274 49 C274.33 54.94 274.66 60.88 275 67 C273.02 66.67 271.04 66.34 269 66 C269 68.31 269 70.62 269 73 C267.35 73 265.7 73 264 73 C264 73.66 264 74.32 264 75 C262.35 75 260.7 75 259 75 C259 75.99 259 76.98 259 78 C257.35 78 255.7 78 254 78 C254 78.66 254 79.32 254 80 C252.68 80 251.36 80 250 80 C250 80.66 250 81.32 250 82 C248.35 82 246.7 82 245 82 C244.67 82.99 244.34 83.98 244 85 C200.11 85 156.22 85 111 85 C110.67 84.01 110.34 83.02 110 82 C109.01 82 108.02 82 107 82 C107 82.99 107 83.98 107 85 C67.73 85 28.46 85 -12 85 C-12.33 84.01 -12.66 83.02 -13 82 C-15.97 82 -18.94 82 -22 82 C-22 81.34 -22 80.68 -22 80 C-25.3 80 -28.6 80 -32 80 C-32 77.69 -32 75.38 -32 73 C-33.65 72.67 -35.3 72.34 -37 72 C-37 70.02 -37 68.04 -37 66 C-38.32 66 -39.64 66 -41 66 C-41 51.15 -41 36.3 -41 21 C-39.68 21 -38.36 21 -37 21 C-37 19.02 -37 17.04 -37 15 C-35.35 14.67 -33.7 14.34 -32 14 C-32 13.34 -32 12.68 -32 12 C-30.35 12 -28.7 12 -27 12 C-27 11.34 -27 10.68 -27 10 C-25.35 10 -23.7 10 -22 10 C-22 9.34 -22 8.68 -22 8 C-18.58168085 5.4606772 -16.24223102 4.6363802 -12 5 C-12 4.34 -12 3.68 -12 3 C-10.68 3 -9.36 3 -8 3 C-8 2.34 -8 1.68 -8 1 C-2.25 0 -2.25 0 0 0 Z " fill="#0D0B0C" transform="translate(41,2)"/>
<path d="M0 0 C0 0.66 0 1.32 0 2 C0.66 2 1.32 2 2 2 C2 2.66 2 3.32 2 4 C3.65 4 5.3 4 7 4 C7 4.66 7 5.32 7 6 C5.35 6 3.7 6 2 6 C2 6.66 2 7.32 2 8 C0.35 8 -1.3 8 -3 8 C-3 8.99 -3 9.98 -3 11 C-4.32 11 -5.64 11 -7 11 C-7 11.66 -7 12.32 -7 13 C-8.65 13 -10.3 13 -12 13 C-12 13.66 -12 14.32 -12 15 C-14.97 15 -17.94 15 -21 15 C-21 16.32 -21 17.64 -21 19 C-22.65 19 -24.3 19 -26 19 C-26 22.3 -26 25.6 -26 29 C-27.65 29 -29.3 29 -31 29 C-31 37.25 -31 45.5 -31 54 C-26.38 54 -21.76 54 -17 54 C-17 54.66 -17 55.32 -17 56 C-20.3 56 -23.6 56 -27 56 C-27 56.66 -27 57.32 -27 58 C-28.32 58 -29.64 58 -31 58 C-31 59.98 -31 61.96 -31 64 C-29.68 64 -28.36 64 -27 64 C-27 64.66 -27 65.32 -27 66 C-25.02 66 -23.04 66 -21 66 C-21 68.97 -21 71.94 -21 75 C-19.68 75 -18.36 75 -17 75 C-17 75.66 -17 76.32 -17 77 C-8.75 77 -0.5 77 8 77 C8.33 76.34 8.66 75.68 9 75 C9 75.66 9 76.32 9 77 C16.92 76.505 16.92 76.505 25 76 C25.33 76.99 25.66 77.98 26 79 C27.32 79 28.64 79 30 79 C30.33 79.66 30.66 80.32 31 81 C33.01669827 82.13350534 33.01669827 82.13350534 35 83 C28.60962769 83.02527062 22.21926817 83.04283317 15.82885742 83.05493164 C13.65307127 83.05997308 11.47728853 83.06680607 9.30151367 83.07543945 C6.18146933 83.08751338 3.06146962 83.09323005 -0.05859375 83.09765625 C-1.52733192 83.10539818 -1.52733192 83.10539818 -3.02574158 83.11329651 C-4.37702904 83.11340981 -4.37702904 83.11340981 -5.75561523 83.11352539 C-6.95141457 83.11685631 -6.95141457 83.11685631 -8.17137146 83.12025452 C-10 83 -10 83 -11 82 C-12.49496842 81.79300437 -13.9966592 81.63320741 -15.5 81.5 C-19.88888889 81.11111111 -19.88888889 81.11111111 -21 80 C-22.32781878 79.79395915 -23.66295895 79.6337041 -25 79.5 C-28.88888889 79.11111111 -28.88888889 79.11111111 -30 78 C-30.04080783 76.00041636 -30.04254356 73.99954746 -30 72 C-31.65 72 -33.3 72 -35 72 C-35.495 69.03 -35.495 69.03 -36 66 C-36.99 65.67 -37.98 65.34 -39 65 C-39.0987934 59.07353601 -39.17143282 53.14755005 -39.21972656 47.22045898 C-39.23985609 45.20377251 -39.26716237 43.18714449 -39.30175781 41.1706543 C-39.35021722 38.27377918 -39.37295499 35.37767485 -39.390625 32.48046875 C-39.41127014 31.57725388 -39.43191528 30.674039 -39.45318604 29.74345398 C-39.45544041 23.47076456 -39.45544041 23.47076456 -36.97558594 20.9074707 C-36.32364258 20.60800537 -35.67169922 20.30854004 -35 20 C-35.33 18.02 -35.66 16.04 -36 14 C-34.68 14 -33.36 14 -32 14 C-32 13.34 -32 12.68 -32 12 C-30.35 12 -28.7 12 -27 12 C-27 11.34 -27 10.68 -27 10 C-25.35 10 -23.7 10 -22 10 C-22 9.34 -22 8.68 -22 8 C-18.58168085 5.4606772 -16.24223102 4.6363802 -12 5 C-12 4.34 -12 3.68 -12 3 C-10.68 3 -9.36 3 -8 3 C-8 2.34 -8 1.68 -8 1 C-2.25 0 -2.25 0 0 0 Z " fill="#201F23" transform="translate(41,2)"/>
<path d="M0 0 C0.99 0 1.98 0 3 0 C3.33 5.94 3.66 11.88 4 18 C2.02 17.67 0.04 17.34 -2 17 C-2 19.31 -2 21.62 -2 24 C-3.65 24 -5.3 24 -7 24 C-7 24.66 -7 25.32 -7 26 C-8.65 26 -10.3 26 -12 26 C-12 26.99 -12 27.98 -12 29 C-13.65 29 -15.3 29 -17 29 C-17 29.66 -17 30.32 -17 31 C-18.32 31 -19.64 31 -21 31 C-21 31.66 -21 32.32 -21 33 C-27.28436324 33.9303906 -33.38313968 34.1370088 -39.73046875 34.11352539 C-40.77526901 34.11367142 -41.82006927 34.11381744 -42.89653015 34.1139679 C-46.32687505 34.11327496 -49.75716467 34.10551168 -53.1875 34.09765625 C-55.57503225 34.09578987 -57.96256489 34.094367 -60.35009766 34.09336853 C-66.61689319 34.08956069 -72.88366533 34.07974525 -79.15045166 34.06866455 C-85.55212081 34.05841311 -91.95379375 34.05386292 -98.35546875 34.04882812 C-110.90365578 34.03812138 -123.45182664 34.0212596 -136 34 C-134 32 -134 32 -131.32980347 31.75949097 C-130.19729156 31.76393219 -129.06477966 31.76837341 -127.89794922 31.77294922 C-126.61677216 31.77310028 -125.33559509 31.77325134 -124.01559448 31.77340698 C-122.61195726 31.78362105 -121.2083216 31.79405305 -119.8046875 31.8046875 C-118.37265215 31.80841709 -116.94061425 31.81126431 -115.50857544 31.81326294 C-111.73721283 31.82090373 -107.96600396 31.84055592 -104.19470215 31.8626709 C-100.34727051 31.88311981 -96.49981406 31.8922626 -92.65234375 31.90234375 C-85.10149236 31.9238015 -77.55076771 31.95794268 -70 32 C-70 31.34 -70 30.68 -70 30 C-71.32 30 -72.64 30 -74 30 C-74.495 27.03 -74.495 27.03 -75 24 C-74.01 23.67 -73.02 23.34 -72 23 C-72 22.34 -72 21.68 -72 21 C-72.99 21 -73.98 21 -75 21 C-75 20.34 -75 19.68 -75 19 C-73.35 19 -71.7 19 -70 19 C-69.505 24.445 -69.505 24.445 -69 30 C-67.68 29.34 -66.36 28.68 -65 28 C-62.60913086 27.6652832 -62.60913086 27.6652832 -59.96484375 27.55078125 C-58.98966797 27.50759766 -58.01449219 27.46441406 -57.00976562 27.41992188 C-55.99591797 27.38447266 -54.98207031 27.34902344 -53.9375 27.3125 C-52.95072266 27.26544922 -51.96394531 27.21839844 -50.94726562 27.16992188 C-44.21480925 26.90097634 -37.69132695 27.22618426 -31 28 C-31 27.34 -31 26.68 -31 26 C-29.68 26 -28.36 26 -27 26 C-27 25.34 -27 24.68 -27 24 C-25.35 24 -23.7 24 -22 24 C-22 23.01 -22 22.02 -22 21 C-20.35 21 -18.7 21 -17 21 C-17 20.34 -17 19.68 -17 19 C-15.68 19 -14.36 19 -13 19 C-12.505 17.515 -12.505 17.515 -12 16 C-10.68 16 -9.36 16 -8 16 C-8 15.34 -8 14.68 -8 14 C-10.97 14 -13.94 14 -17 14 C-17 13.34 -17 12.68 -17 12 C-15.35 12 -13.7 12 -12 12 C-12 11.34 -12 10.68 -12 10 C-10.68 10 -9.36 10 -8 10 C-8 9.34 -8 8.68 -8 8 C-5.36 7.67 -2.72 7.34 0 7 C0 4.69 0 2.38 0 0 Z " fill="#222326" transform="translate(312,51)"/>
<path d="M0 0 C1.32 0.33 2.64 0.66 4 1 C4 2.32 4 3.64 4 5 C6.475 5.495 6.475 5.495 9 6 C9 7.32 9 8.64 9 10 C10.32 10 11.64 10 13 10 C12.6875 11.9375 12.6875 11.9375 12 14 C11.01 14.33 10.02 14.66 9 15 C9 18.96 9 22.92 9 27 C7.02 27.99 7.02 27.99 5 29 C4.29327794 32.10930941 4.29327794 32.10930941 4.25 35.625 C4.19328125 36.81351563 4.1365625 38.00203125 4.078125 39.2265625 C4.05234375 40.14179687 4.0265625 41.05703125 4 42 C3.34 42 2.68 42 2 42 C2 41.34 2 40.68 2 40 C-2.29 40 -6.58 40 -11 40 C-11 39.34 -11 38.68 -11 38 C-9.68 38 -8.36 38 -7 38 C-6.67 33.71 -6.34 29.42 -6 25 C-2.04 25.33 1.92 25.66 6 26 C6 25.34 6 24.68 6 24 C3.36 24 0.72 24 -2 24 C-2 23.34 -2 22.68 -2 22 C-6.62 22 -11.24 22 -16 22 C-16 21.01 -16 20.02 -16 19 C-12.7 19 -9.4 19 -6 19 C-6 18.01 -6 17.02 -6 16 C-4.68 16 -3.36 16 -2 16 C-2.020625 15.195625 -2.04125 14.39125 -2.0625 13.5625 C-2 11 -2 11 -1 10 C1.33297433 9.95907063 3.66705225 9.95758277 6 10 C6 9.01 6 8.02 6 7 C5.38125 6.95875 4.7625 6.9175 4.125 6.875 C3.42375 6.58625 2.7225 6.2975 2 6 C0.75 2.9375 0.75 2.9375 0 0 Z " fill="#27292C" transform="translate(306,9)"/>
<path d="M0 0 C44.55 0 89.1 0 135 0 C134.67 0.99 134.34 1.98 134 3 C90.11 3 46.22 3 1 3 C0.67 2.01 0.34 1.02 0 0 Z " fill="#0B0B0B" transform="translate(151,84)"/>
<path d="M0 0 C0 0.66 0 1.32 0 2 C0.66 2 1.32 2 2 2 C2 2.66 2 3.32 2 4 C3.65 4 5.3 4 7 4 C7 4.66 7 5.32 7 6 C5.35 6 3.7 6 2 6 C2 6.66 2 7.32 2 8 C0.35 8 -1.3 8 -3 8 C-3 8.99 -3 9.98 -3 11 C-4.32 11 -5.64 11 -7 11 C-7 11.66 -7 12.32 -7 13 C-8.65 13 -10.3 13 -12 13 C-12 13.66 -12 14.32 -12 15 C-14.97 15 -17.94 15 -21 15 C-21.33 15.99 -21.66 16.98 -22 18 C-24.97 17.67 -27.94 17.34 -31 17 C-30.34 15.68 -29.68 14.36 -29 13 C-27.68 13 -26.36 13 -25 13 C-25 12.34 -25 11.68 -25 11 C-24.360625 10.896875 -23.72125 10.79375 -23.0625 10.6875 C-22.381875 10.460625 -21.70125 10.23375 -21 10 C-20.67 9.01 -20.34 8.02 -20 7 C-16.77208445 4.8480563 -15.71599191 4.79913557 -12 5 C-12 4.34 -12 3.68 -12 3 C-10.68 3 -9.36 3 -8 3 C-8 2.34 -8 1.68 -8 1 C-2.25 0 -2.25 0 0 0 Z " fill="#26272A" transform="translate(41,2)"/>
<path d="M0 0 C1.19616943 0.23771118 1.19616943 0.23771118 2.41650391 0.48022461 C6.73919691 1.1072183 10.97396434 1.2300308 15.3359375 1.31640625 C16.65496567 1.3475779 16.65496567 1.3475779 18.00064087 1.37937927 C20.79201931 1.44442963 23.58348671 1.50355148 26.375 1.5625 C28.27474855 1.60572762 30.17448831 1.64934323 32.07421875 1.69335938 C36.71605614 1.80006501 41.35798246 1.90145615 46 2 C46 2.66 46 3.32 46 4 C33.79 4 21.58 4 9 4 C9 4.66 9 5.32 9 6 C11.475 6.495 11.475 6.495 14 7 C14 8.32 14 9.64 14 11 C15.65 11 17.3 11 19 11 C19 11.66 19 12.32 19 13 C20.32 13 21.64 13 23 13 C23 13.99 23 14.98 23 16 C24.32 16 25.64 16 27 16 C27 16.66 27 17.32 27 18 C24.23723823 17.47731534 21.6739124 16.89130413 19 16 C19 16.66 19 17.32 19 18 C17.02 18 15.04 18 13 18 C13.33 16.68 13.66 15.36 14 14 C10.6828589 12.5783681 7.55780196 11.60990891 4 11 C4 10.34 4 9.68 4 9 C2.35 9 0.7 9 -1 9 C-1 8.34 -1 7.68 -1 7 C-2.32 7 -3.64 7 -5 7 C-5 6.34 -5 5.68 -5 5 C-6.65 4.67 -8.3 4.34 -10 4 C-10 3.34 -10 2.68 -10 2 C-6.67465243 0.89155081 -4.37817425 1.15545644 -1 2 C-0.67 3.32 -0.34 4.64 0 6 C1.32 6.33 2.64 6.66 4 7 C4 5.35 4 3.7 4 2 C2.68 2 1.36 2 0 2 C0 1.34 0 0.68 0 0 Z " fill="#4B5E55" transform="translate(96,6)"/>
<path d="M0 0 C1.65 0 3.3 0 5 0 C5 1.65 5 3.3 5 5 C12.92 5 20.84 5 29 5 C29 5.66 29 6.32 29 7 C30.32 7 31.64 7 33 7 C33 8.32 33 9.64 33 11 C15.84 11 -1.32 11 -19 11 C-18.67 10.34 -18.34 9.68 -18 9 C-12.06 9 -6.12 9 0 9 C0 8.34 0 7.68 0 7 C0 4.66666667 0 2.33333333 0 0 Z " fill="#242527" transform="translate(124,74)"/>
<path d="M0 0 C1.65 0.33 3.3 0.66 5 1 C5 1.99 5 2.98 5 4 C5.99 4 6.98 4 8 4 C8.33 5.65 8.66 7.3 9 9 C11.475 9.495 11.475 9.495 14 10 C13.67 10.99 13.34 11.98 13 13 C10.69 13.33 8.38 13.66 6 14 C5.67 15.32 5.34 16.64 5 18 C3.35 18 1.7 18 0 18 C0 16.02 0 14.04 0 12 C-1.65 11.67 -3.3 11.34 -5 11 C-5 9.68 -5 8.36 -5 7 C-7.97 7 -10.94 7 -14 7 C-14 6.01 -14 5.02 -14 4 C-11.03 4 -8.06 4 -5 4 C-5 3.34 -5 2.68 -5 2 C-3.35 2 -1.7 2 0 2 C0 1.34 0 0.68 0 0 Z " fill="#3B4443" transform="translate(299,6)"/>
<path d="M0 0 C1.65 0 3.3 0 5 0 C5 0.99 5 1.98 5 3 C6.65 3 8.3 3 10 3 C10 5.64 10 8.28 10 11 C9.34 11 8.68 11 8 11 C8 11.66 8 12.32 8 13 C7.01 13 6.02 13 5 13 C5 13.66 5 14.32 5 15 C4.34 15 3.68 15 3 15 C3 15.66 3 16.32 3 17 C2.34 17 1.68 17 1 17 C1 17.66 1 18.32 1 19 C0.01 19 -0.98 19 -2 19 C-2 18.34 -2 17.68 -2 17 C-2.66 17 -3.32 17 -4 17 C-4 16.34 -4 15.68 -4 15 C-4.66 15 -5.32 15 -6 15 C-6 14.34 -6 13.68 -6 13 C-6.66 13 -7.32 13 -8 13 C-8 12.01 -8 11.02 -8 10 C-8.66 10 -9.32 10 -10 10 C-10 9.34 -10 8.68 -10 8 C-7.525 8.495 -7.525 8.495 -5 9 C-5 8.34 -5 7.68 -5 7 C-3.35 7 -1.7 7 0 7 C0 4.69 0 2.38 0 0 Z " fill="#408961" transform="translate(271,30)"/>
<path d="M0 0 C1.65 0 3.3 0 5 0 C5 0.66 5 1.32 5 2 C9.29 2 13.58 2 18 2 C18 2.66 18 3.32 18 4 C20.475 4.495 20.475 4.495 23 5 C23.04254356 6.99954746 23.04080783 9.00041636 23 11 C22 12 22 12 20.15234375 12.09765625 C18.1015625 12.06510417 16.05078125 12.03255208 14 12 C14 12.66 14 13.32 14 14 C12.35 14 10.7 14 9 14 C9 11.69 9 9.38 9 7 C7.35 7 5.7 7 4 7 C4 5.68 4 4.36 4 3 C2.68 3 1.36 3 0 3 C0 2.01 0 1.02 0 0 Z " fill="#38403F" transform="translate(290,47)"/>
<path d="M0 0 C9.27734375 0.5859375 9.27734375 0.5859375 12 1 C12.33 1.66 12.66 2.32 13 3 C12.01 3.495 12.01 3.495 11 4 C10.53045739 7.04581269 10.53045739 7.04581269 10.375 10.5625 C10.30023438 11.76003906 10.22546875 12.95757812 10.1484375 14.19140625 C10.09945313 15.11824219 10.05046875 16.04507813 10 17 C9.34 17 8.68 17 8 17 C8 16.34 8 15.68 8 15 C3.71 15 -0.58 15 -5 15 C-5 14.34 -5 13.68 -5 13 C-3.68 13 -2.36 13 -1 13 C-0.67 8.71 -0.34 4.42 0 0 Z " fill="#26282B" transform="translate(300,34)"/>
<path d="M0 0 C2.31 0 4.62 0 7 0 C7 0.66 7 1.32 7 2 C7.66386719 1.97679688 8.32773438 1.95359375 9.01171875 1.9296875 C17.78207381 1.75043937 17.78207381 1.75043937 22 4 C21.67 5.65 21.34 7.3 21 9 C19.74703125 9.06058594 18.4940625 9.12117188 17.203125 9.18359375 C15.55207276 9.26802256 13.90103165 9.35266939 12.25 9.4375 C11.425 9.47681641 10.6 9.51613281 9.75 9.55664062 C8.95078125 9.59853516 8.1515625 9.64042969 7.328125 9.68359375 C6.5949707 9.72025146 5.86181641 9.75690918 5.10644531 9.79467773 C2.98822395 10.00114785 1.0480544 10.43132086 -1 11 C-1 9.02 -1 7.04 -1 5 C0.32 5 1.64 5 3 5 C3 3.68 3 2.36 3 1 C2.01 0.67 1.02 0.34 0 0 Z " fill="#2D3132" transform="translate(244,70)"/>
<path d="M0 0 C0.125 6.75 0.125 6.75 -1 9 C-1.99 9 -2.98 9 -4 9 C-4.33 10.98 -4.66 12.96 -5 15 C-6.32 15 -7.64 15 -9 15 C-9 13.68 -9 12.36 -9 11 C-10.65 11.33 -12.3 11.66 -14 12 C-13.67 11.01 -13.34 10.02 -13 9 C-11.68 9 -10.36 9 -9 9 C-9 8.34 -9 7.68 -9 7 C-11.97 7 -14.94 7 -18 7 C-18 6.34 -18 5.68 -18 5 C-16.35 5 -14.7 5 -13 5 C-13 4.34 -13 3.68 -13 3 C-11.68 3 -10.36 3 -9 3 C-9 2.34 -9 1.68 -9 1 C-1.125 0 -1.125 0 0 0 Z " fill="#242529" transform="translate(313,58)"/>
<path d="M0 0 C4.95 0 9.9 0 15 0 C15 2.97 15 5.94 15 9 C13.535625 9.144375 12.07125 9.28875 10.5625 9.4375 C7.48153302 9.53495826 7.48153302 9.53495826 5 11 C3.33382885 11.04063832 1.66611905 11.042721 0 11 C0 10.01 0 9.02 0 8 C1.65 8 3.3 8 5 8 C5 7.34 5 6.68 5 6 C2.69 6 0.38 6 -2 6 C-0.36587557 4.29159719 0.86906094 3.06546953 3 2 C2.01 1.34 1.02 0.68 0 0 Z " fill="#414C49" transform="translate(228,2)"/>
<path d="M0 0 C1.65 0 3.3 0 5 0 C5 8.25 5 16.5 5 25 C3.35 25 1.7 25 0 25 C0 16.75 0 8.5 0 0 Z " fill="#47524F" transform="translate(10,31)"/>
<path d="M0 0 C0.99 0 1.98 0 3 0 C3.33 5.94 3.66 11.88 4 18 C2.02 17.67 0.04 17.34 -2 17 C-2 19.31 -2 21.62 -2 24 C-3.65 24 -5.3 24 -7 24 C-7 24.66 -7 25.32 -7 26 C-8.65 26 -10.3 26 -12 26 C-12 26.99 -12 27.98 -12 29 C-13.65 29 -15.3 29 -17 29 C-17 29.66 -17 30.32 -17 31 C-18.32 31 -19.64 31 -21 31 C-21 31.66 -21 32.32 -21 33 C-22.32 32.67 -23.64 32.34 -25 32 C-24.34 31.34 -23.68 30.68 -23 30 C-21.68 30 -20.36 30 -19 30 C-18.67 29.01 -18.34 28.02 -18 27 C-16.68 27 -15.36 27 -14 27 C-14 26.34 -14 25.68 -14 25 C-10.38026598 23.68373308 -7.90432869 23 -4 23 C-3.67 20.69 -3.34 18.38 -3 16 C-2.01 16 -1.02 16 0 16 C0 10.72 0 5.44 0 0 Z " fill="#110E12" transform="translate(312,51)"/>
<path d="M0 0 C1.65 0 3.3 0 5 0 C5 1.32 5 2.64 5 4 C12.59 4 20.18 4 28 4 C28 4.99 28 5.98 28 7 C20.08 7 12.16 7 4 7 C4 6.34 4 5.68 4 5 C2.68 5 1.36 5 0 5 C0 3.35 0 1.7 0 0 Z " fill="#474F4D" transform="translate(20,72)"/>
<path d="M0 0 C0 1.32 0 2.64 0 4 C-17.16 4 -34.32 4 -52 4 C-51.67 3.34 -51.34 2.68 -51 2 C-50.05084717 2.00785522 -50.05084717 2.00785522 -49.08251953 2.01586914 C-38.31801962 2.09277233 -27.564102 2.16234059 -16.8125 1.5625 C-16.0901416 1.52326416 -15.3677832 1.48402832 -14.62353516 1.44360352 C-9.67279617 1.13514441 -4.94867524 0 0 0 Z " fill="#1E1D21" transform="translate(157,81)"/>
<path d="M0 0 C4.455 1.98 4.455 1.98 9 4 C9 5.32 9 6.64 9 8 C10.65 8 12.3 8 14 8 C14 8.66 14 9.32 14 10 C15.32 10 16.64 10 18 10 C18 10.99 18 11.98 18 13 C19.32 13 20.64 13 22 13 C22 13.66 22 14.32 22 15 C19.23723823 14.47731534 16.6739124 13.89130413 14 13 C14 13.66 14 14.32 14 15 C12.02 15 10.04 15 8 15 C8.33 13.68 8.66 12.36 9 11 C8.195625 10.773125 7.39125 10.54625 6.5625 10.3125 C5.2940625 9.6628125 5.2940625 9.6628125 4 9 C3.1875 6.375 3.1875 6.375 3 4 C2.01 3.67 1.02 3.34 0 3 C0 2.01 0 1.02 0 0 Z " fill="#438860" transform="translate(101,9)"/>
<path d="M0 0 C22.11 0 44.22 0 67 0 C67.495 1.485 67.495 1.485 68 3 C66.69712036 2.89389404 66.69712036 2.89389404 65.36791992 2.78564453 C53.76164329 1.94260229 42.19352806 1.84666356 30.55981445 1.86962891 C27.28006503 1.87505365 24.00044875 1.86961798 20.72070312 1.86328125 C18.62239553 1.86394103 16.52408802 1.86522011 14.42578125 1.8671875 C13.45183914 1.86516327 12.47789703 1.86313904 11.47444153 1.86105347 C10.56546616 1.86420563 9.65649078 1.86735779 8.7199707 1.87060547 C7.52994194 1.87179886 7.52994194 1.87179886 6.31587219 1.87301636 C3.80166547 2.01087506 1.45488402 2.45234106 -1 3 C-0.67 2.01 -0.34 1.02 0 0 Z " fill="#141317" transform="translate(190,0)"/>
<path d="M0 0 C1.65 0 3.3 0 5 0 C5.33 0.99 5.66 1.98 6 3 C4.35 3 2.7 3 1 3 C1 3.66 1 4.32 1 5 C-0.32 5 -1.64 5 -3 5 C-3.33 5.99 -3.66 6.98 -4 8 C-7.3 8 -10.6 8 -14 8 C-14 7.01 -14 6.02 -14 5 C-12.35 5 -10.7 5 -9 5 C-9 4.01 -9 3.02 -9 2 C-6.03 2 -3.06 2 0 2 C0 1.34 0 0.68 0 0 Z " fill="#429266" transform="translate(38,51)"/>
<path d="M0 0 C2.97 0.33 5.94 0.66 9 1 C9.33 1.99 9.66 2.98 10 4 C12.97 4 15.94 4 19 4 C19 4.66 19 5.32 19 6 C18.360625 6.12375 17.72125 6.2475 17.0625 6.375 C16.381875 6.58125 15.70125 6.7875 15 7 C14.67 7.66 14.34 8.32 14 9 C12.68 9 11.36 9 10 9 C10 9.66 10 10.32 10 11 C8.35 11 6.7 11 5 11 C5 10.34 5 9.68 5 9 C6.32 9 7.64 9 9 9 C9 7.68 9 6.36 9 5 C7.35 4.67 5.7 4.34 4 4 C4 3.34 4 2.68 4 2 C2.68 2 1.36 2 0 2 C0 1.34 0 0.68 0 0 Z " fill="#43524A" transform="translate(285,61)"/>
<path d="M0 0 C1.65 0 3.3 0 5 0 C5 3 5 6 5 9 C3.35 9 1.7 9 0 9 C0 7.68 0 6.36 0 5 C-2.97 5 -5.94 5 -9 5 C-9 4.01 -9 3.02 -9 2 C-6.03 2 -3.06 2 0 2 C0 1.34 0 0.68 0 0 Z " fill="#46524F" transform="translate(294,8)"/>
<path d="M0 0 C0.99 0 1.98 0 3 0 C3 0.66 3 1.32 3 2 C3.66 2 4.32 2 5 2 C5 2.66 5 3.32 5 4 C5.66 4 6.32 4 7 4 C7 4.66 7 5.32 7 6 C8.65 6 10.3 6 12 6 C12 5.34 12 4.68 12 4 C12.66 4 13.32 4 14 4 C14 3.34 14 2.68 14 2 C14.66 2 15.32 2 16 2 C16 1.34 16 0.68 16 0 C16.99 0 17.98 0 19 0 C19 0.66 19 1.32 19 2 C18.34 2 17.68 2 17 2 C17 2.66 17 3.32 17 4 C16.34 4 15.68 4 15 4 C15 4.99 15 5.98 15 7 C14.34 7 13.68 7 13 7 C13 7.66 13 8.32 13 9 C12.34 9 11.68 9 11 9 C11 9.66 11 10.32 11 11 C10.01 11 9.02 11 8 11 C8 10.34 8 9.68 8 9 C7.34 9 6.68 9 6 9 C6 8.34 6 7.68 6 7 C5.34 7 4.68 7 4 7 C4 6.34 4 5.68 4 5 C3.34 5 2.68 5 2 5 C2 4.01 2 3.02 2 2 C1.34 2 0.68 2 0 2 C0 1.34 0 0.68 0 0 Z " fill="#F7F8F8" transform="translate(261,38)"/>
<path d="M0 0 C0.33 1.32 0.66 2.64 1 4 C3.97 4.33 6.94 4.66 10 5 C10 6.32 10 7.64 10 9 C8.35 9 6.7 9 5 9 C5 8.34 5 7.68 5 7 C3.35 7 1.7 7 0 7 C0 6.34 0 5.68 0 5 C-1.32 5 -2.64 5 -4 5 C-4 4.34 -4 3.68 -4 3 C-5.65 2.67 -7.3 2.34 -9 2 C-9 1.34 -9 0.68 -9 0 C-5.52176885 -1.15941038 -3.54104422 -0.70820884 0 0 Z " fill="#3F4A49" transform="translate(95,8)"/>
<path d="M0 0 C1.91015625 0.23046875 1.91015625 0.23046875 3.91015625 2.23046875 C2.95109375 2.38515625 2.95109375 2.38515625 1.97265625 2.54296875 C1.29203125 2.76984375 0.61140625 2.99671875 -0.08984375 3.23046875 C-0.41984375 4.22046875 -0.74984375 5.21046875 -1.08984375 6.23046875 C0.23015625 6.23046875 1.55015625 6.23046875 2.91015625 6.23046875 C2.91015625 7.88046875 2.91015625 9.53046875 2.91015625 11.23046875 C1.26015625 10.90046875 -0.38984375 10.57046875 -2.08984375 10.23046875 C-2.08984375 8.91046875 -2.08984375 7.59046875 -2.08984375 6.23046875 C-3.40984375 6.23046875 -4.72984375 6.23046875 -6.08984375 6.23046875 C-6.47203142 4.57432218 -6.80379477 2.90589851 -7.08984375 1.23046875 C-5.19495423 -0.66442077 -2.51845229 0.05027763 0 0 Z " fill="#2E3134" transform="translate(97.08984375,1.76953125)"/>
<path d="M0 0 C6.27 0 12.54 0 19 0 C19 0.66 19 1.32 19 2 C21.64 2 24.28 2 27 2 C27 2.66 27 3.32 27 4 C18.42857143 4.14285714 18.42857143 4.14285714 15 3 C14.67 3.99 14.34 4.98 14 6 C14 4.68 14 3.36 14 2 C9.38 2 4.76 2 0 2 C0 1.34 0 0.68 0 0 Z " fill="#416753" transform="translate(285,31)"/>
<path d="M0 0 C1.98 0 3.96 0 6 0 C6 0.99 6 1.98 6 3 C4.35 3 2.7 3 1 3 C1 3.99 1 4.98 1 6 C2.32 6 3.64 6 5 6 C5 6.99 5 7.98 5 9 C3.35 9 1.7 9 0 9 C0 8.34 0 7.68 0 7 C-1.32 7 -2.64 7 -4 7 C-4 5.35 -4 3.7 -4 2 C-2.68 2 -1.36 2 0 2 C0 1.34 0 0.68 0 0 Z " fill="#3B654F" transform="translate(71,74)"/>
<path d="M0 0 C0 1.32 0 2.64 0 4 C-0.66 4 -1.32 4 -2 4 C-2 4.66 -2 5.32 -2 6 C-2.99 5.67 -3.98 5.34 -5 5 C-4.34 5 -3.68 5 -3 5 C-3 4.34 -3 3.68 -3 3 C-2.34 3 -1.68 3 -1 3 C-1 2.34 -1 1.68 -1 1 C-1.99 1 -2.98 1 -4 1 C-4 1.66 -4 2.32 -4 3 C-4.66 3 -5.32 3 -6 3 C-6 3.66 -6 4.32 -6 5 C-6.66 5 -7.32 5 -8 5 C-8 5.66 -8 6.32 -8 7 C-8.66 7 -9.32 7 -10 7 C-10.33 7.66 -10.66 8.32 -11 9 C-11 8.34 -11 7.68 -11 7 C-11.66 7 -12.32 7 -13 7 C-13.33 5.68 -13.66 4.36 -14 3 C-12.68 3 -11.36 3 -10 3 C-10 2.34 -10 1.68 -10 1 C-6.59437148 0.22157062 -3.49234244 -0.09978121 0 0 Z " fill="#555A5A" transform="translate(281,37)"/>
<path d="M0 0 C4.95 0 9.9 0 15 0 C15 1.32 15 2.64 15 4 C12.03 4 9.06 4 6 4 C6 3.34 6 2.68 6 2 C3.69 2 1.38 2 -1 2 C-0.67 1.34 -0.34 0.68 0 0 Z " fill="#4E5A56" transform="translate(227,6)"/>
<path d="M0 0 C0 0.66 0 1.32 0 2 C-1.32 2 -2.64 2 -4 2 C-4.0825 2.78375 -4.165 3.5675 -4.25 4.375 C-5 7 -5 7 -7.0625 8.3125 C-7.701875 8.539375 -8.34125 8.76625 -9 9 C-9.33 6.36 -9.66 3.72 -10 1 C-6.59437148 0.22157062 -3.49234244 -0.09978121 0 0 Z " fill="#272A2B" transform="translate(86,68)"/>
<path d="M0 0 C1.98 0 3.96 0 6 0 C5.67 2.31 5.34 4.62 5 7 C3.35 7 1.7 7 0 7 C0 6.34 0 5.68 0 5 C-1.32 5 -2.64 5 -4 5 C-4 4.34 -4 3.68 -4 3 C-2.68 3 -1.36 3 0 3 C0 2.01 0 1.02 0 0 Z " fill="#495350" transform="translate(43,8)"/>
<path d="M0 0 C1.65 0 3.3 0 5 0 C5 0.66 5 1.32 5 2 C7.31 2 9.62 2 12 2 C11.01 2.495 11.01 2.495 10 3 C10 4.32 10 5.64 10 7 C8.02 7 6.04 7 4 7 C4 5.68 4 4.36 4 3 C2.68 3 1.36 3 0 3 C0 2.01 0 1.02 0 0 Z " fill="#3E4846" transform="translate(290,47)"/>
<path d="M0 0 C4.455 1.98 4.455 1.98 9 4 C9 5.32 9 6.64 9 8 C10.32 8 11.64 8 13 8 C13 8.66 13 9.32 13 10 C10.03 9.67 7.06 9.34 4 9 C3.67 7.35 3.34 5.7 3 4 C2.01 3.67 1.02 3.34 0 3 C0 2.01 0 1.02 0 0 Z " fill="#47A56D" transform="translate(101,9)"/>
<path d="M0 0 C1.32 0 2.64 0 4 0 C3.6875 1.9375 3.6875 1.9375 3 4 C2.01 4.33 1.02 4.66 0 5 C0 8.96 0 12.92 0 17 C-0.99 17 -1.98 17 -3 17 C-2.88630789 14.54066009 -2.75957349 12.0832091 -2.625 9.625 C-2.5940625 8.92632812 -2.563125 8.22765625 -2.53125 7.5078125 C-2.2265625 2.2265625 -2.2265625 2.2265625 0 0 Z " fill="#150F16" transform="translate(315,19)"/>
<path d="M0 0 C1.32 0 2.64 0 4 0 C4 0.99 4 1.98 4 3 C2.68 3 1.36 3 0 3 C0 3.66 0 4.32 0 5 C-3.3 5 -6.6 5 -10 5 C-10 4.01 -10 3.02 -10 2 C-9.04287109 1.90912109 -9.04287109 1.90912109 -8.06640625 1.81640625 C-6.82697266 1.69072266 -6.82697266 1.69072266 -5.5625 1.5625 C-4.73878906 1.48128906 -3.91507812 1.40007812 -3.06640625 1.31640625 C-1.01337975 1.21069185 -1.01337975 1.21069185 0 0 Z " fill="#424948" transform="translate(281,74)"/>
<path d="M0 0 C1.32 0 2.64 0 4 0 C4 0.66 4 1.32 4 2 C5.32 2 6.64 2 8 2 C8.33 3.98 8.66 5.96 9 8 C7.35 8 5.7 8 4 8 C4 6.35 4 4.7 4 3 C2.35 3 0.7 3 -1 3 C-0.67 2.01 -0.34 1.02 0 0 Z " fill="#4D7D60" transform="translate(234,62)"/>
<path d="M0 0 C1.98 0 3.96 0 6 0 C5.67 0.99 5.34 1.98 5 3 C3.68 3 2.36 3 1 3 C1 4.32 1 5.64 1 7 C-0.65 7 -2.3 7 -4 7 C-4 5.35 -4 3.7 -4 2 C-2.68 2 -1.36 2 0 2 C0 1.34 0 0.68 0 0 Z " fill="#496D59" transform="translate(14,58)"/>
<path d="M0 0 C1.65 0 3.3 0 5 0 C5.33 0.99 5.66 1.98 6 3 C4.35 3 2.7 3 1 3 C1 3.66 1 4.32 1 5 C-0.32 5 -1.64 5 -3 5 C-3.33 5.66 -3.66 6.32 -4 7 C-4 5.68 -4 4.36 -4 3 C-5.65 3.33 -7.3 3.66 -9 4 C-9 3.34 -9 2.68 -9 2 C-6.03 2 -3.06 2 0 2 C0 1.34 0 0.68 0 0 Z " fill="#3E7A5B" transform="translate(38,51)"/>
<path d="M0 0 C1.65 0 3.3 0 5 0 C5 1.98 5 3.96 5 6 C3.35 6.33 1.7 6.66 0 7 C0 4.69 0 2.38 0 0 Z " fill="#1D1B1F" transform="translate(124,74)"/>
<path d="M0 0 C2.64 0 5.28 0 8 0 C8 1.98 8 3.96 8 6 C6.68 6 5.36 6 4 6 C4 4.68 4 3.36 4 2 C2.35 2.33 0.7 2.66 -1 3 C-0.67 2.01 -0.34 1.02 0 0 Z " fill="#33403D" transform="translate(300,67)"/>
<path d="M0 0 C1.65 0 3.3 0 5 0 C5 0.66 5 1.32 5 2 C6.65 2 8.3 2 10 2 C10 2.99 10 3.98 10 5 C8.35 5 6.7 5 5 5 C5 4.34 5 3.68 5 3 C3.35 3 1.7 3 0 3 C0 2.01 0 1.02 0 0 Z " fill="#3F825F" transform="translate(24,24)"/>
<path d="M0 0 C0 1.32 0 2.64 0 4 C-3.3 4 -6.6 4 -10 4 C-9.67 3.01 -9.34 2.02 -9 1 C-5.846632 0.29925156 -3.27275026 0 0 0 Z " fill="#19171A" transform="translate(157,81)"/>
<path d="M0 0 C0.99 0 1.98 0 3 0 C3 0.66 3 1.32 3 2 C4.65 2.33 6.3 2.66 8 3 C8 3.66 8 4.32 8 5 C5.69 5 3.38 5 1 5 C1 4.34 1 3.68 1 3 C0.34 3 -0.32 3 -1 3 C-0.67 2.01 -0.34 1.02 0 0 Z " fill="#2B3031" transform="translate(225,58)"/>
<path d="M0 0 C7.26 0 14.52 0 22 0 C22 0.33 22 0.66 22 1 C20.75863281 1.06058594 19.51726562 1.12117187 18.23828125 1.18359375 C16.59634423 1.26803623 14.95441768 1.35268236 13.3125 1.4375 C12.49587891 1.47681641 11.67925781 1.51613281 10.83789062 1.55664062 C6.80344189 1.76898003 2.94252691 2.04447922 -1 3 C-0.67 2.01 -0.34 1.02 0 0 Z " fill="#121113" transform="translate(190,0)"/>
<path d="M0 0 C1.32 0 2.64 0 4 0 C4 2.31 4 4.62 4 7 C2.68 7 1.36 7 0 7 C0 4.69 0 2.38 0 0 Z " fill="#4C5855" transform="translate(300,17)"/>
<path d="M0 0 C0.66 0 1.32 0 2 0 C1.67 0.99 1.34 1.98 1 3 C-0.32 3 -1.64 3 -3 3 C-3 3.66 -3 4.32 -3 5 C-6.82989106 6.80230168 -9.78121808 7.19622241 -14 7 C-12.68 6.67 -11.36 6.34 -10 6 C-10 5.34 -10 4.68 -10 4 C-8.35 4 -6.7 4 -5 4 C-5 3.34 -5 2.68 -5 2 C-3.35 2 -1.7 2 0 2 C0 1.34 0 0.68 0 0 Z " fill="#0F0D0F" transform="translate(19,10)"/>
<path d="M0 0 C2.97 0 5.94 0 9 0 C9 0.66 9 1.32 9 2 C7.35 2 5.7 2 4 2 C4 2.66 4 3.32 4 4 C2.68 4 1.36 4 0 4 C0 2.68 0 1.36 0 0 Z " fill="#4B5452" transform="translate(300,56)"/>
<path d="M0 0 C-1.32 0.33 -2.64 0.66 -4 1 C-4 1.66 -4 2.32 -4 3 C-5.65 3.66 -7.3 4.32 -9 5 C-9 4.34 -9 3.68 -9 3 C-9.66 2.67 -10.32 2.34 -11 2 C-10.34 2 -9.68 2 -9 2 C-9 1.34 -9 0.68 -9 0 C-5.62182575 -0.84454356 -3.32534757 -1.10844919 0 0 Z " fill="#4A8666" transform="translate(275,37)"/>
<path d="M0 0 C0 0.66 0 1.32 0 2 C1.65 2 3.3 2 5 2 C5 2.33 5 2.66 5 3 C0.545 3.495 0.545 3.495 -4 4 C-4 3.34 -4 2.68 -4 2 C-5.65 2 -7.3 2 -9 2 C-9 1.67 -9 1.34 -9 1 C-5.846632 0.29925156 -3.27275026 0 0 0 Z " fill="#2B2F30" transform="translate(24,20)"/>
<path d="M0 0 C3.3 0.33 6.6 0.66 10 1 C10 1.99 10 2.98 10 4 C8.35 4 6.7 4 5 4 C5 3.34 5 2.68 5 2 C3.35 2 1.7 2 0 2 C0 1.34 0 0.68 0 0 Z " fill="#3C6753" transform="translate(81,66)"/>
<path d="M0 0 C1.65 0 3.3 0 5 0 C5 1.65 5 3.3 5 5 C3.35 5 1.7 5 0 5 C0 3.35 0 1.7 0 0 Z " fill="#485351" transform="translate(285,42)"/>
<path d="M0 0 C4.95 0 9.9 0 15 0 C15 0.33 15 0.66 15 1 C14.34773438 1.06058594 13.69546875 1.12117187 13.0234375 1.18359375 C8.31283783 1.63519991 3.65798362 2.14195039 -1 3 C-0.67 2.01 -0.34 1.02 0 0 Z " fill="#46504E" transform="translate(45,2)"/>
<path d="M0 0 C2.97 0.33 5.94 0.66 9 1 C9 1.99 9 2.98 9 4 C7.35 4 5.7 4 4 4 C4 3.34 4 2.68 4 2 C2.68 2 1.36 2 0 2 C0 1.34 0 0.68 0 0 Z " fill="#4B8766" transform="translate(285,61)"/>
<path d="M0 0 C1.32 0.33 2.64 0.66 4 1 C4 2.32 4 3.64 4 5 C5.65 5.33 7.3 5.66 9 6 C8.67 7.32 8.34 8.64 8 10 C8 9.01 8 8.02 8 7 C5.03 6.505 5.03 6.505 2 6 C1.34 4.02 0.68 2.04 0 0 Z " fill="#131316" transform="translate(306,9)"/>
<path d="M0 0 C2.97 0 5.94 0 9 0 C9 0.66 9 1.32 9 2 C4.545 2.495 4.545 2.495 0 3 C0 2.01 0 1.02 0 0 Z " fill="#458C67" transform="translate(295,65)"/>
<path d="M0 0 C1.65 0 3.3 0 5 0 C5 0.66 5 1.32 5 2 C2.34771188 3.07525194 -0.28368454 4.09456151 -3 5 C-3.66 4.67 -4.32 4.34 -5 4 C-5 3.34 -5 2.68 -5 2 C-3.35 2 -1.7 2 0 2 C0 1.34 0 0.68 0 0 Z " fill="#2A2E2F" transform="translate(48,47)"/>
<path d="M0 0 C2.31 0 4.62 0 7 0 C7 0.99 7 1.98 7 3 C4.36 3 1.72 3 -1 3 C-0.67 2.01 -0.34 1.02 0 0 Z " fill="#374743" transform="translate(3,24)"/>
<path d="M0 0 C0.66 1.32 1.32 2.64 2 4 C-0.49092811 5.24546405 -1.41080733 4.7767578 -4 4 C-4 6.31 -4 8.62 -4 11 C-4.33 11 -4.66 11 -5 11 C-5 8.36 -5 5.72 -5 3 C-4.01 3 -3.02 3 -2 3 C-2 2.34 -2 1.68 -2 1 C-1.34 0.67 -0.68 0.34 0 0 Z " fill="#070307" transform="translate(314,64)"/>
<path d="M0 0 C2.05078125 0.03255208 4.1015625 0.06510417 6.15234375 0.09765625 C4.17234375 1.08765625 4.17234375 1.08765625 2.15234375 2.09765625 C2.15234375 3.08765625 2.15234375 4.07765625 2.15234375 5.09765625 C0.83234375 5.09765625 -0.48765625 5.09765625 -1.84765625 5.09765625 C-2.41015625 3.16015625 -2.41015625 3.16015625 -2.84765625 1.09765625 C-1.84765625 0.09765625 -1.84765625 0.09765625 0 0 Z " fill="#131315" transform="translate(92.84765625,1.90234375)"/>
<path d="M0 0 C0.33 0 0.66 0 1 0 C1 3.96 1 7.92 1 12 C0.01 12 -0.98 12 -2 12 C-1.34 8.04 -0.68 4.08 0 0 Z " fill="#080508" transform="translate(314,24)"/>
<path d="M0 0 C3.34373475 0.55728913 6.03312999 1.35173889 9 3 C7.68 3 6.36 3 5 3 C4.67 3.66 4.34 4.32 4 5 C4 4.34 4 3.68 4 3 C2.68 3 1.36 3 0 3 C0 2.01 0 1.02 0 0 Z " fill="#395349" transform="translate(280,58)"/>
<path d="M0 0 C1.32 0 2.64 0 4 0 C4 1.65 4 3.3 4 5 C2.68 5 1.36 5 0 5 C0 3.35 0 1.7 0 0 Z " fill="#4B5652" transform="translate(295,37)"/>
<path d="M0 0 C1.65 0 3.3 0 5 0 C4.67 1.65 4.34 3.3 4 5 C2.68 4.34 1.36 3.68 0 3 C0 2.01 0 1.02 0 0 Z " fill="#417257" transform="translate(15,22)"/>
<path d="M0 0 C0 0.66 0 1.32 0 2 C-2.97 2 -5.94 2 -9 2 C-9 1.34 -9 0.68 -9 0 C-5.52176885 -1.15941038 -3.54104422 -0.70820884 0 0 Z " fill="#475551" transform="translate(95,8)"/>
<path d="M0 0 C1.98 0 3.96 0 6 0 C6 0.99 6 1.98 6 3 C4.02 3 2.04 3 0 3 C0 2.01 0 1.02 0 0 Z " fill="#3F8561" transform="translate(42,56)"/>
<path d="M0 0 C0.33 1.32 0.66 2.64 1 4 C2.32 4 3.64 4 5 4 C5 4.66 5 5.32 5 6 C2.03 5.67 -0.94 5.34 -4 5 C-2.68 4.67 -1.36 4.34 0 4 C0 2.68 0 1.36 0 0 Z " fill="#489868" transform="translate(109,13)"/>
<path d="M0 0 C0 1.65 0 3.3 0 5 C-1.32 5 -2.64 5 -4 5 C-4 3.68 -4 2.36 -4 1 C-1 0 -1 0 0 0 Z " fill="#19191C" transform="translate(242,76)"/>
<path d="M0 0 C1.65 0 3.3 0 5 0 C5 0.99 5 1.98 5 3 C3.02 3 1.04 3 -1 3 C-0.67 2.01 -0.34 1.02 0 0 Z " fill="#46514F" transform="translate(295,51)"/>
<path d="M0 0 C0.33 0.99 0.66 1.98 1 3 C-0.65 3 -2.3 3 -4 3 C-4 3.66 -4 4.32 -4 5 C-7 4 -7 4 -9 2 C-5.62182575 1.15545644 -3.32534757 0.89155081 0 2 C0 1.34 0 0.68 0 0 Z " fill="#3E7358" transform="translate(280,33)"/>
<path d="M0 0 C2 1 2 1 2 1 Z " fill="#000000" transform="translate(17,84)"/>
<path d="M0 0 C2 1 2 1 2 1 Z " fill="#000000" transform="translate(300,80)"/>
<path d="M0 0 C2 1 2 1 2 1 Z " fill="#000000" transform="translate(22,6)"/>
<path d="" fill="#000000" transform="translate(0,0)"/>
<path d="" fill="#000000" transform="translate(0,0)"/>
<path d="" fill="#000000" transform="translate(0,0)"/>
<path d="" fill="#000000" transform="translate(0,0)"/>
<path d="" fill="#000000" transform="translate(0,0)"/>
<path d="" fill="#000000" transform="translate(0,0)"/>
<path d="" fill="#000000" transform="translate(0,0)"/>
<path d="" fill="#000000" transform="translate(0,0)"/>
<path d="" fill="#000000" transform="translate(0,0)"/>
<path d="" fill="#000000" transform="translate(0,0)"/>
<path d="" fill="#000000" transform="translate(0,0)"/>
<path d="" fill="#000000" transform="translate(0,0)"/>
<path d="" fill="#000000" transform="translate(0,0)"/>
<path d="" fill="#000000" transform="translate(0,0)"/>
<path d="" fill="#000000" transform="translate(0,0)"/>
<path d="" fill="#000000" transform="translate(0,0)"/>
<path d="" fill="#000000" transform="translate(0,0)"/>
<path d="" fill="#000000" transform="translate(0,0)"/>
<path d="" fill="#000000" transform="translate(0,0)"/>
<path d="" fill="#000000" transform="translate(0,0)"/>
</svg>
