<svg width="376" height="376" viewBox="0 0 376 376" fill="none" xmlns="http://www.w3.org/2000/svg">
<rect width="376" height="376" rx="30" fill="url(#paint0_linear_734_1566)" fill-opacity="0.71"/>
<rect x="58" y="56" width="260" height="264" rx="30" fill="white" fill-opacity="0.58"/>
<path d="M343.64 29.3998H346.38V35.4798H343.64V29.3998ZM343.64 36.7436H346.38V42.8236H343.64V36.7436ZM343.64 44.0873H346.38V50.1673H343.64V44.0873ZM343.64 51.4311H346.38V57.5111H343.64V51.4311Z" fill="black"/>
<path d="M346.44 29.2621V32.0021H340.36V29.2621H346.44ZM339.096 29.2621V32.0021H333.016V29.2621H339.096ZM331.752 29.2621V32.0021H325.672V29.2621H331.752ZM324.409 29.2621V32.0021H318.329V29.2621H324.409Z" fill="black"/>
<path d="M30.56 32.36V29.62H36.64V32.36H30.56ZM37.9038 32.36V29.62H43.9838V32.36H37.9038ZM45.2475 32.36V29.62H51.3275V32.36H45.2475ZM52.5913 32.36V29.62H58.6713V32.36H52.5913Z" fill="black"/>
<path d="M30.64 29.3998H33.38V35.4798H30.64V29.3998ZM30.64 36.7436H33.38V42.8236H30.64V36.7436ZM30.64 44.0873H33.38V50.1673H30.64V44.0873ZM30.64 51.4311H33.38V57.5111H30.64V51.4311Z" fill="black"/>
<path d="M33.36 345.6H30.62V339.52H33.36V345.6ZM33.36 338.256H30.62V332.176H33.36V338.256ZM33.36 330.913H30.62V324.833H33.36V330.913ZM33.36 323.569H30.62V317.489H33.36V323.569Z" fill="black"/>
<path d="M30.56 345.738V342.998H36.64V345.738H30.56ZM37.9038 345.738V342.998H43.9838V345.738H37.9038ZM45.2475 345.738V342.998H51.3275V345.738H45.2475ZM52.5913 345.738V342.998H58.6713V345.738H52.5913Z" fill="black"/>
<path d="M348.44 342.64V345.38H342.36V342.64H348.44ZM341.096 342.64V345.38H335.016V342.64H341.096ZM333.752 342.64V345.38H327.672V342.64H333.752ZM326.409 342.64V345.38H320.329V342.64H326.409Z" fill="black"/>
<path d="M348.36 345.6H345.62V339.52H348.36V345.6ZM348.36 338.256H345.62V332.176H348.36V338.256ZM348.36 330.913H345.62V324.833H348.36V330.913ZM348.36 323.569H345.62V317.489H348.36V323.569Z" fill="black"/>
<path d="M95.36 284.44H92.62V278.36H95.36V284.44ZM95.36 277.096H92.62V271.016H95.36V277.096ZM95.36 269.752H92.62V263.672H95.36V269.752ZM95.36 262.409H92.62V256.329H95.36V262.409Z" fill="black"/>
<path d="M92.56 285.36V282.62H98.64V285.36H92.56ZM99.9038 285.36V282.62H105.984V285.36H99.9038ZM107.248 285.36V282.62H113.328V285.36H107.248ZM114.591 285.36V282.62H120.671V285.36H114.591Z" fill="black"/>
<path d="M286.44 283.64V286.38H280.36V283.64H286.44ZM279.096 283.64V286.38H273.016V283.64H279.096ZM271.752 283.64V286.38H265.672V283.64H271.752ZM264.409 283.64V286.38H258.329V283.64H264.409Z" fill="black"/>
<path d="M287.36 286.44H284.62V280.36H287.36V286.44ZM287.36 279.096H284.62V273.016H287.36V279.096ZM287.36 271.752H284.62V265.672H287.36V271.752ZM287.36 264.409H284.62V258.329H287.36V264.409Z" fill="black"/>
<path d="M93.56 92.36V89.62H99.64V92.36H93.56ZM100.904 92.36V89.62H106.984V92.36H100.904ZM108.248 92.36V89.62H114.328V92.36H108.248ZM115.591 92.36V89.62H121.671V92.36H115.591Z" fill="black"/>
<path d="M92.64 89.56H95.38V95.64H92.64V89.56ZM92.64 96.9038H95.38V102.984H92.64V96.9038ZM92.64 104.248H95.38V110.328H92.64V104.248ZM92.64 111.591H95.38V117.671H92.64V111.591Z" fill="black"/>
<path d="M282.64 88.56H285.38V94.64H282.64V88.56ZM282.64 95.9038H285.38V101.984H282.64V95.9038ZM282.64 103.248H285.38V109.328H282.64V103.248ZM282.64 110.591H285.38V116.671H282.64V110.591Z" fill="black"/>
<path d="M285.44 87.64V90.38H279.36V87.64H285.44ZM278.096 87.64V90.38H272.016V87.64H278.096ZM270.752 87.64V90.38H264.672V87.64H270.752ZM263.409 87.64V90.38H257.329V87.64H263.409Z" fill="black"/>
<defs>
<linearGradient id="paint0_linear_734_1566" x1="188" y1="0" x2="188" y2="376" gradientUnits="userSpaceOnUse">
<stop stop-color="#D9D9D9"/>
<stop offset="1" stop-color="#979797"/>
</linearGradient>
</defs>
</svg>
