<?xml version="1.0" encoding="UTF-8"?>
<svg version="1.1" xmlns="http://www.w3.org/2000/svg" width="1504" height="1504">
<path d="M0 0 C2.22063197 -0.00313408 4.4412624 -0.00758129 6.66188943 -0.0132131 C12.75311531 -0.02486668 18.84419803 -0.01792042 24.93542151 -0.00787924 C30.88162015 -0.00104501 36.82779747 -0.00841204 42.77399234 -0.01531039 C55.07693582 -0.02907722 67.37984204 -0.02867658 79.68278885 -0.02046776 C92.14438252 -0.01220382 104.60595169 -0.01048113 117.06754684 -0.01667976 C117.85566168 -0.01706728 118.64377651 -0.0174548 119.45577362 -0.01785406 C122.6658273 -0.01945394 125.87588096 -0.02110007 129.0859346 -0.02280489 C158.9616981 -0.03866032 188.83744517 -0.03975456 218.71321106 -0.03136253 C219.59789737 -0.03111415 220.48258367 -0.03086576 221.39407865 -0.03060985 C222.28018498 -0.03036106 223.16629131 -0.03011227 224.07924935 -0.02985594 C251.08136373 -0.02228466 278.08347133 -0.02033302 305.08558655 -0.02392387 C306.89418342 -0.02415631 308.70278029 -0.02438778 310.51137716 -0.02461828 C317.7794861 -0.02554969 325.04759503 -0.0265057 332.31570396 -0.02749758 C352.6327308 -0.03024852 372.94975766 -0.03196038 393.26678467 -0.03285599 C394.65453688 -0.03291739 394.65453688 -0.03291739 396.07032449 -0.03298004 C425.54758593 -0.03420776 455.02484501 -0.03082776 484.50210571 -0.02430725 C485.93608358 -0.02399113 485.93608358 -0.02399113 487.3990307 -0.02366862 C502.92334333 -0.02023383 518.44765591 -0.01657542 533.97196849 -0.0128981 C595.5421455 0.00167076 657.11230293 0.00099455 718.68247986 -0.01358986 C734.19898476 -0.01725347 749.71548967 -0.02088664 765.23199463 -0.02430725 C766.66513095 -0.02462427 766.66513095 -0.02462427 768.12721951 -0.02494769 C797.57391855 -0.0314168 827.02061595 -0.03415896 856.46731567 -0.03285599 C857.39180335 -0.03281523 858.31629102 -0.03277448 859.26879347 -0.03273249 C879.56329634 -0.03179503 899.85779904 -0.02989407 920.15230174 -0.02712448 C927.41388997 -0.02613707 934.6754782 -0.02519782 941.93706644 -0.02427235 C943.74353935 -0.02404018 945.55001227 -0.02380399 947.35648519 -0.02356376 C974.35100022 -0.01998381 1001.34550761 -0.0230307 1028.34002169 -0.03060985 C1029.66705115 -0.03098243 1029.66705115 -0.03098243 1031.02088928 -0.03136253 C1031.9039416 -0.03161058 1032.78699392 -0.03185863 1033.6968054 -0.03211419 C1063.48686081 -0.04039063 1093.27689653 -0.03734142 1123.06694913 -0.0215203 C1126.26681723 -0.01986326 1129.46668535 -0.01825315 1132.6665535 -0.01667976 C1133.84449629 -0.01609383 1133.84449629 -0.01609383 1135.0462359 -0.01549607 C1147.4734803 -0.00958226 1159.90070019 -0.01369502 1172.32794238 -0.02198678 C1184.55178578 -0.02992877 1196.77558787 -0.02712575 1208.99942605 -0.01294452 C1215.53638763 -0.00564974 1222.07327562 -0.0033865 1228.61023629 -0.01416247 C1234.56031631 -0.02387104 1240.51022138 -0.01971064 1246.46028872 -0.00462049 C1248.59619605 -0.00160598 1250.73211794 -0.00357892 1252.86801367 -0.0112383 C1282.19398862 -0.10891612 1311.59744814 7.13604586 1333.86705017 27.37752342 C1334.69205017 28.08521873 1335.51705017 28.79291405 1336.36705017 29.52205467 C1358.95065908 49.17943377 1374.93214937 77.5622147 1377.03624895 107.80985291 C1377.31069558 114.37459524 1377.26813042 120.94141284 1377.24457359 127.51047325 C1377.24770768 129.73110522 1377.25215489 131.95173565 1377.25778669 134.17236269 C1377.26944027 140.26358857 1377.26249401 146.35467128 1377.25245283 152.44589476 C1377.2456186 158.39209341 1377.25298563 164.33827072 1377.25988398 170.28446559 C1377.27365082 182.58740908 1377.27325017 194.89031529 1377.26504135 207.1932621 C1377.25677741 219.65485578 1377.25505473 232.11642494 1377.26125336 244.5780201 C1377.26164087 245.36613493 1377.26202839 246.15424977 1377.26242765 246.96624687 C1377.26402753 250.17630055 1377.26567366 253.38635421 1377.26737848 256.59640785 C1377.28323391 286.47217135 1377.28432815 316.34791843 1377.27593613 346.22368431 C1377.27568774 347.10837062 1377.27543935 347.99305692 1377.27518344 348.9045519 C1377.27493465 349.79065824 1377.27468586 350.67676457 1377.27442954 351.5897226 C1377.26685825 378.59183698 1377.26490662 405.59394458 1377.26849747 432.5960598 C1377.26872991 434.40465667 1377.26896137 436.21325354 1377.26919188 438.02185041 C1377.27012329 445.28995935 1377.27107929 452.55806828 1377.27207117 459.82617721 C1377.27482211 480.14320405 1377.27653397 500.46023091 1377.27742958 520.77725792 C1377.27747052 521.70242606 1377.27751146 522.6275942 1377.27755363 523.58079774 C1377.27878136 553.05805918 1377.27540136 582.53531826 1377.26888084 612.01257896 C1377.2686701 612.96856421 1377.26845935 613.92454946 1377.26824222 614.90950395 C1377.26480742 630.43381658 1377.26114901 645.95812916 1377.2574717 661.48244174 C1377.24290283 723.05261875 1377.24357904 784.62277619 1377.25816345 846.19295311 C1377.26182706 861.70945801 1377.26546023 877.22596292 1377.26888084 892.74246788 C1377.26919786 894.1756042 1377.26919786 894.1756042 1377.26952128 895.63769277 C1377.2759904 925.0843918 1377.27873255 954.5310892 1377.27742958 983.97778893 C1377.27736845 985.36452044 1377.27736845 985.36452044 1377.27730609 986.77926673 C1377.27636863 1007.07376959 1377.27446766 1027.36827229 1377.27169807 1047.66277499 C1377.27071066 1054.92436322 1377.26977142 1062.18595145 1377.26884594 1069.44753969 C1377.26861377 1071.25401261 1377.26837758 1073.06048552 1377.26813735 1074.86695844 C1377.2645574 1101.86147347 1377.26760429 1128.85598086 1377.27518344 1155.85049494 C1377.27555602 1157.1775244 1377.27555602 1157.1775244 1377.27593613 1158.53136253 C1377.27618417 1159.41441485 1377.27643222 1160.29746717 1377.27668778 1161.20727865 C1377.28496422 1190.99733406 1377.28191502 1220.78736978 1377.26609389 1250.57742238 C1377.26443685 1253.77729048 1377.26282674 1256.9771586 1377.26125336 1260.17702675 C1377.26086274 1260.96232194 1377.26047212 1261.74761713 1377.26006966 1262.55670915 C1377.25415585 1274.98395355 1377.25826862 1287.41117344 1377.26656037 1299.83841563 C1377.27450236 1312.06225903 1377.27169935 1324.28606113 1377.25751811 1336.5098993 C1377.25022333 1343.04686088 1377.2479601 1349.58374887 1377.25873606 1356.12070954 C1377.26844463 1362.07078956 1377.26428424 1368.02069464 1377.24919408 1373.97076197 C1377.24617957 1376.1066693 1377.24815251 1378.2425912 1377.25581189 1380.37848692 C1377.35348971 1409.70446187 1370.10852773 1439.10792139 1349.86705017 1461.37752342 C1349.15935486 1462.20252342 1348.45165955 1463.02752342 1347.72251892 1463.87752342 C1328.06513983 1486.46113233 1299.68235889 1502.44262262 1269.43472068 1504.5467222 C1262.86997835 1504.82116883 1256.30316075 1504.77860368 1249.73410034 1504.75504684 C1247.51346837 1504.75818093 1245.29283795 1504.76262814 1243.07221091 1504.76825994 C1236.98098503 1504.77991352 1230.88990231 1504.77296726 1224.79867883 1504.76292608 C1218.85248019 1504.75609185 1212.90630287 1504.76345888 1206.96010801 1504.77035724 C1194.65716452 1504.78412407 1182.3542583 1504.78372343 1170.05131149 1504.7755146 C1157.58971782 1504.76725066 1145.12814865 1504.76552798 1132.6665535 1504.77172661 C1131.48438125 1504.77230789 1131.48438125 1504.77230789 1130.27832673 1504.7729009 C1127.06827304 1504.77450078 1123.85821938 1504.77614691 1120.64816575 1504.77785173 C1090.77240224 1504.79370716 1060.89665517 1504.7948014 1031.02088928 1504.78640938 C1030.13620298 1504.78616099 1029.25151667 1504.78591261 1028.34002169 1504.78565669 C1027.45391536 1504.7854079 1026.56780903 1504.78515911 1025.65485099 1504.78490279 C998.65273661 1504.7773315 971.65062901 1504.77537987 944.64851379 1504.77897072 C942.83991692 1504.77920316 941.03132005 1504.77943463 939.22272318 1504.77966513 C931.95461424 1504.78059654 924.68650531 1504.78155254 917.41839638 1504.78254442 C897.10136954 1504.78529536 876.78434268 1504.78700722 856.46731567 1504.78790283 C855.54214753 1504.78794377 854.61697939 1504.78798471 853.66377585 1504.78802688 C824.18651441 1504.78925461 794.70925533 1504.78587461 765.23199463 1504.7793541 C764.27600938 1504.77914335 763.32002414 1504.7789326 762.33506964 1504.77871547 C746.81075701 1504.77528068 731.28644443 1504.77162226 715.76213185 1504.76794495 C654.19195485 1504.75337608 592.62179741 1504.75405229 531.05162048 1504.7686367 C515.53511558 1504.77230031 500.01861067 1504.77593348 484.50210571 1504.7793541 C483.5466815 1504.77956544 482.59125729 1504.77977678 481.60688083 1504.77999453 C452.1601818 1504.78646365 422.71348439 1504.78920581 393.26678467 1504.78790283 C392.34229699 1504.78786208 391.41780932 1504.78782133 390.46530687 1504.78777934 C370.170804 1504.78684188 349.8763013 1504.78494091 329.58179861 1504.78217132 C322.32021038 1504.78118391 315.05862214 1504.78024467 307.7970339 1504.77931919 C305.99056099 1504.77908702 304.18408807 1504.77885083 302.37761516 1504.7786106 C275.38310012 1504.77503065 248.38859273 1504.77807754 221.39407865 1504.78565669 C220.06704919 1504.78602927 220.06704919 1504.78602927 218.71321106 1504.78640938 C217.38863258 1504.78678145 217.38863258 1504.78678145 216.03729494 1504.78716104 C186.24723953 1504.79543747 156.45720381 1504.79238827 126.66715121 1504.77656715 C123.46728311 1504.77491011 120.26741499 1504.77329999 117.06754684 1504.77172661 C116.28225165 1504.77133599 115.49695646 1504.77094537 114.68786444 1504.77054291 C102.26062004 1504.7646291 89.83340016 1504.76874187 77.40615796 1504.77703363 C65.18231456 1504.78497561 52.95851247 1504.7821726 40.73467429 1504.76799136 C34.19771271 1504.76069658 27.66082473 1504.75843335 21.12386405 1504.76920931 C15.17378403 1504.77891788 9.22387896 1504.77475749 3.27381162 1504.75966733 C1.1379043 1504.75665282 -0.9980176 1504.75862576 -3.13391332 1504.76628514 C-32.45988828 1504.86396297 -61.8633478 1497.61900098 -84.13294983 1477.37752342 C-84.95794983 1476.66982811 -85.78294983 1475.9621328 -86.63294983 1475.23299217 C-109.21655873 1455.57561308 -125.19804903 1427.19283214 -127.30214861 1396.94519393 C-127.57659524 1390.3804516 -127.53403008 1383.81363401 -127.51047325 1377.24457359 C-127.51360733 1375.02394163 -127.51805455 1372.8033112 -127.52368635 1370.58268416 C-127.53533993 1364.49145828 -127.52839367 1358.40037556 -127.51835249 1352.30915208 C-127.51151826 1346.36295344 -127.51888529 1340.41677612 -127.52578364 1334.47058126 C-127.53955048 1322.16763777 -127.53914983 1309.86473156 -127.53094101 1297.56178474 C-127.52267707 1285.10019107 -127.52095439 1272.63862191 -127.52715302 1260.17702675 C-127.52754053 1259.38891191 -127.52792805 1258.60079708 -127.52832731 1257.78879998 C-127.52992719 1254.57874629 -127.53157332 1251.36869263 -127.53327814 1248.158639 C-127.54913357 1218.2828755 -127.55022781 1188.40712842 -127.54183578 1158.53136253 C-127.5415874 1157.64667623 -127.54133901 1156.76198992 -127.5410831 1155.85049494 C-127.54070992 1154.52133544 -127.54070992 1154.52133544 -127.54032919 1153.16532424 C-127.53275791 1126.16320986 -127.53080628 1099.16110227 -127.53439713 1072.15898705 C-127.53462956 1070.35039017 -127.53486103 1068.5417933 -127.53509154 1066.73319643 C-127.53602295 1059.46508749 -127.53697895 1052.19697856 -127.53797083 1044.92886963 C-127.54072177 1024.61184279 -127.54243363 1004.29481593 -127.54332924 983.97778893 C-127.54337018 983.05262078 -127.54341111 982.12745264 -127.54345329 981.1742491 C-127.54468102 951.69698766 -127.54130102 922.21972858 -127.5347805 892.74246788 C-127.53456976 891.78648263 -127.53435901 890.83049739 -127.53414187 889.84554289 C-127.53070708 874.32123026 -127.52704867 858.79691768 -127.52337135 843.2726051 C-127.50880249 781.7024281 -127.5094787 720.13227066 -127.52406311 658.56209373 C-127.52772672 643.04558883 -127.53135989 627.52908392 -127.5347805 612.01257896 C-127.53509752 610.57944265 -127.53509752 610.57944265 -127.53542094 609.11735408 C-127.54189005 579.67065505 -127.54463221 550.22395764 -127.54332924 520.77725792 C-127.54328849 519.85277025 -127.54324773 518.92828257 -127.54320575 517.97578012 C-127.54226829 497.68127725 -127.54036732 477.38677456 -127.53759773 457.09227186 C-127.53661032 449.83068363 -127.53567107 442.56909539 -127.5347456 435.30750715 C-127.53451343 433.50103424 -127.53427724 431.69456132 -127.53403701 429.88808841 C-127.53045706 402.89357337 -127.53350395 375.89906599 -127.5410831 348.9045519 C-127.54133149 348.0198656 -127.54157987 347.13517929 -127.54183578 346.22368431 C-127.54208383 345.34063199 -127.54233188 344.45757967 -127.54258744 343.54776819 C-127.55086388 313.75771278 -127.54781468 283.96767706 -127.53199355 254.17762446 C-127.53033651 250.97775636 -127.5287264 247.77788824 -127.52715302 244.5780201 C-127.52676239 243.7927249 -127.52637177 243.00742971 -127.52596932 242.19833769 C-127.52005551 229.77109329 -127.52416828 217.34387341 -127.53246003 204.91663122 C-127.54040202 192.69278781 -127.537599 180.46898572 -127.52341777 168.24514754 C-127.51612299 161.70818596 -127.51385976 155.17129798 -127.52463572 148.63433731 C-127.53434429 142.68425729 -127.53018389 136.73435221 -127.51509374 130.78428487 C-127.51207923 128.64837755 -127.51405217 126.51245565 -127.52171155 124.37655993 C-127.61938937 95.05058497 -120.37442739 65.64712546 -100.13294983 43.37752342 C-99.42525452 42.55252342 -98.7175592 41.72752342 -97.98841858 40.87752342 C-72.31642271 11.38395199 -38.2037866 -0.13699983 0 0 Z M168.86705017 296.37752342 C168.86705017 597.33752342 168.86705017 898.29752342 168.86705017 1208.37752342 C469.82705017 1208.37752342 770.78705017 1208.37752342 1080.86705017 1208.37752342 C1080.86705017 907.41752342 1080.86705017 606.45752342 1080.86705017 296.37752342 C779.90705017 296.37752342 478.94705017 296.37752342 168.86705017 296.37752342 Z " fill="#929292" transform="translate(127.13294982910156,-0.37752342224121094)"/>
<path d="M0 0 C3.96 0 7.92 0 12 0 C12 8.25 12 16.5 12 25 C2.43 25 -7.14 25 -17 25 C-17 21.04 -17 17.08 -17 13 C-11.39 13 -5.78 13 0 13 C0 8.71 0 4.42 0 0 Z " fill="#000000" transform="translate(1138,1121)"/>
<path d="M0 0 C3.96 0 7.92 0 12 0 C12 5.61 12 11.22 12 17 C16.29 17 20.58 17 25 17 C25 20.96 25 24.92 25 29 C16.75 29 8.5 29 0 29 C0 19.43 0 9.86 0 0 Z " fill="#000000" transform="translate(370,1113)"/>
<path d="M0 0 C9.57 0 19.14 0 29 0 C29 3.96 29 7.92 29 12 C23.39 12 17.78 12 12 12 C12 16.29 12 20.58 12 25 C8.04 25 4.08 25 0 25 C0 16.75 0 8.5 0 0 Z " fill="#000000" transform="translate(370,358)"/>
<path d="M0 0 C8.25 0 16.5 0 25 0 C25 9.57 25 19.14 25 29 C21.04 29 17.08 29 13 29 C13 23.39 13 17.78 13 12 C8.71 12 4.42 12 0 12 C0 8.04 0 4.08 0 0 Z " fill="#000000" transform="translate(1069,350)"/>
<path d="M0 0 C3.96 0 7.92 0 12 0 C12 8.25 12 16.5 12 25 C3.44165833 25 -4.54113759 24.73555325 -13 24 C-13 20.04 -13 16.08 -13 12 C-8.71 12 -4.42 12 0 12 C0 8.04 0 4.08 0 0 Z " fill="#080808" transform="translate(1382,1358)"/>
<path d="M0 0 C3.96 0 7.92 0 12 0 C12 4.62 12 9.24 12 14 C16.29 14 20.58 14 25 14 C25 17.63 25 21.26 25 25 C16.75 25 8.5 25 0 25 C0 16.75 0 8.5 0 0 Z " fill="#040404" transform="translate(122,1358)"/>
<path d="M0 0 C7.92 0 15.84 0 24 0 C24 6.37490638 23.99857685 12.39296729 23.5 18.6875 C23.4071875 19.88761719 23.314375 21.08773437 23.21875 22.32421875 C23.1465625 23.20722656 23.074375 24.09023437 23 25 C19.7 25 16.4 25 13 25 C13 20.38 13 15.76 13 11 C8.71 11 4.42 11 0 11 C0 7.37 0 3.74 0 0 Z " fill="#020202" transform="translate(1362,117)"/>
<path d="M0 0 C12.375 0 12.375 0 17.6875 0.5 C18.70199219 0.5928125 19.71648437 0.685625 20.76171875 0.78125 C21.86966797 0.88953125 21.86966797 0.88953125 23 1 C23 4.3 23 7.6 23 11 C17.06 11.495 17.06 11.495 11 12 C10.67 15.96 10.34 19.92 10 24 C6.7 24 3.4 24 0 24 C0 16.08 0 8.16 0 0 Z " fill="#000000" transform="translate(123,118)"/>
<path d="M0 0 C8.25 0 16.5 0 25 0 C25 3.96 25 7.92 25 12 C16.75 12 8.5 12 0 12 C0 8.04 0 4.08 0 0 Z " fill="#090909" transform="translate(1340,1370)"/>
<path d="M0 0 C8.25 0 16.5 0 25 0 C25 3.96 25 7.92 25 12 C16.75 12 8.5 12 0 12 C0 8.04 0 4.08 0 0 Z " fill="#090909" transform="translate(1310,1370)"/>
<path d="M0 0 C8.25 0 16.5 0 25 0 C25 3.96 25 7.92 25 12 C16.75 12 8.5 12 0 12 C0 8.04 0 4.08 0 0 Z " fill="#090909" transform="translate(1281,1370)"/>
<path d="M0 0 C3.96 0 7.92 0 12 0 C12 8.25 12 16.5 12 25 C8.04 25 4.08 25 0 25 C0 16.75 0 8.5 0 0 Z " fill="#0A0A0A" transform="translate(1382,1328)"/>
<path d="M0 0 C3.96 0 7.92 0 12 0 C12 8.25 12 16.5 12 25 C8.04 25 4.08 25 0 25 C0 16.75 0 8.5 0 0 Z " fill="#0A0A0A" transform="translate(122,1328)"/>
<path d="M0 0 C3.96 0 7.92 0 12 0 C12 8.25 12 16.5 12 25 C8.04 25 4.08 25 0 25 C0 16.75 0 8.5 0 0 Z " fill="#0A0A0A" transform="translate(1382,1299)"/>
<path d="M0 0 C3.96 0 7.92 0 12 0 C12 8.25 12 16.5 12 25 C8.04 25 4.08 25 0 25 C0 16.75 0 8.5 0 0 Z " fill="#0A0A0A" transform="translate(122,1299)"/>
<path d="M0 0 C3.96 0 7.92 0 12 0 C12 8.25 12 16.5 12 25 C8.04 25 4.08 25 0 25 C0 16.75 0 8.5 0 0 Z " fill="#0A0A0A" transform="translate(1382,1270)"/>
<path d="M0 0 C3.96 0 7.92 0 12 0 C12 8.25 12 16.5 12 25 C8.04 25 4.08 25 0 25 C0 16.75 0 8.5 0 0 Z " fill="#0A0A0A" transform="translate(122,1270)"/>
<path d="M0 0 C8.25 0 16.5 0 25 0 C25 3.96 25 7.92 25 12 C16.75 12 8.5 12 0 12 C0 8.04 0 4.08 0 0 Z " fill="#000000" transform="translate(1092,1134)"/>
<path d="M0 0 C8.25 0 16.5 0 25 0 C25 3.96 25 7.92 25 12 C16.75 12 8.5 12 0 12 C0 8.04 0 4.08 0 0 Z " fill="#000000" transform="translate(1062,1134)"/>
<path d="M0 0 C8.25 0 16.5 0 25 0 C25 3.96 25 7.92 25 12 C16.75 12 8.5 12 0 12 C0 8.04 0 4.08 0 0 Z " fill="#000000" transform="translate(1033,1134)"/>
<path d="M0 0 C8.25 0 16.5 0 25 0 C25 3.96 25 7.92 25 12 C16.75 12 8.5 12 0 12 C0 8.04 0 4.08 0 0 Z " fill="#000000" transform="translate(458,1130)"/>
<path d="M0 0 C8.25 0 16.5 0 25 0 C25 3.96 25 7.92 25 12 C16.75 12 8.5 12 0 12 C0 8.04 0 4.08 0 0 Z " fill="#000000" transform="translate(429,1130)"/>
<path d="M0 0 C8.25 0 16.5 0 25 0 C25 3.96 25 7.92 25 12 C16.75 12 8.5 12 0 12 C0 8.04 0 4.08 0 0 Z " fill="#000000" transform="translate(399,1130)"/>
<path d="M0 0 C3.96 0 7.92 0 12 0 C12 8.25 12 16.5 12 25 C8.04 25 4.08 25 0 25 C0 16.75 0 8.5 0 0 Z " fill="#000000" transform="translate(1138,1092)"/>
<path d="M0 0 C3.96 0 7.92 0 12 0 C12 8.25 12 16.5 12 25 C8.04 25 4.08 25 0 25 C0 16.75 0 8.5 0 0 Z " fill="#000000" transform="translate(370,1084)"/>
<path d="M0 0 C3.96 0 7.92 0 12 0 C12 8.25 12 16.5 12 25 C8.04 25 4.08 25 0 25 C0 16.75 0 8.5 0 0 Z " fill="#000000" transform="translate(1138,1062)"/>
<path d="M0 0 C3.96 0 7.92 0 12 0 C12 8.25 12 16.5 12 25 C8.04 25 4.08 25 0 25 C0 16.75 0 8.5 0 0 Z " fill="#000000" transform="translate(370,1054)"/>
<path d="M0 0 C3.96 0 7.92 0 12 0 C12 8.25 12 16.5 12 25 C8.04 25 4.08 25 0 25 C0 16.75 0 8.5 0 0 Z " fill="#000000" transform="translate(1138,1033)"/>
<path d="M0 0 C3.96 0 7.92 0 12 0 C12 8.25 12 16.5 12 25 C8.04 25 4.08 25 0 25 C0 16.75 0 8.5 0 0 Z " fill="#000000" transform="translate(370,1025)"/>
<path d="M0 0 C3.96 0 7.92 0 12 0 C12 8.25 12 16.5 12 25 C8.04 25 4.08 25 0 25 C0 16.75 0 8.5 0 0 Z " fill="#000000" transform="translate(370,446)"/>
<path d="M0 0 C3.96 0 7.92 0 12 0 C12 8.25 12 16.5 12 25 C8.04 25 4.08 25 0 25 C0 16.75 0 8.5 0 0 Z " fill="#000000" transform="translate(1082,442)"/>
<path d="M0 0 C3.96 0 7.92 0 12 0 C12 8.25 12 16.5 12 25 C8.04 25 4.08 25 0 25 C0 16.75 0 8.5 0 0 Z " fill="#000000" transform="translate(370,417)"/>
<path d="M0 0 C3.96 0 7.92 0 12 0 C12 8.25 12 16.5 12 25 C8.04 25 4.08 25 0 25 C0 16.75 0 8.5 0 0 Z " fill="#000000" transform="translate(1082,413)"/>
<path d="M0 0 C3.96 0 7.92 0 12 0 C12 8.25 12 16.5 12 25 C8.04 25 4.08 25 0 25 C0 16.75 0 8.5 0 0 Z " fill="#000000" transform="translate(370,387)"/>
<path d="M0 0 C3.96 0 7.92 0 12 0 C12 8.25 12 16.5 12 25 C8.04 25 4.08 25 0 25 C0 16.75 0 8.5 0 0 Z " fill="#000000" transform="translate(1082,383)"/>
<path d="M0 0 C8.25 0 16.5 0 25 0 C25 3.96 25 7.92 25 12 C16.75 12 8.5 12 0 12 C0 8.04 0 4.08 0 0 Z " fill="#000000" transform="translate(462,358)"/>
<path d="M0 0 C8.25 0 16.5 0 25 0 C25 3.96 25 7.92 25 12 C16.75 12 8.5 12 0 12 C0 8.04 0 4.08 0 0 Z " fill="#000000" transform="translate(433,358)"/>
<path d="M0 0 C8.25 0 16.5 0 25 0 C25 3.96 25 7.92 25 12 C16.75 12 8.5 12 0 12 C0 8.04 0 4.08 0 0 Z " fill="#000000" transform="translate(403,358)"/>
<path d="M0 0 C8.25 0 16.5 0 25 0 C25 3.96 25 7.92 25 12 C16.75 12 8.5 12 0 12 C0 8.04 0 4.08 0 0 Z " fill="#000000" transform="translate(1040,350)"/>
<path d="M0 0 C8.25 0 16.5 0 25 0 C25 3.96 25 7.92 25 12 C16.75 12 8.5 12 0 12 C0 8.04 0 4.08 0 0 Z " fill="#000000" transform="translate(1010,350)"/>
<path d="M0 0 C8.25 0 16.5 0 25 0 C25 3.96 25 7.92 25 12 C16.75 12 8.5 12 0 12 C0 8.04 0 4.08 0 0 Z " fill="#000000" transform="translate(981,350)"/>
<path d="M0 0 C8.25 0 16.5 0 25 0 C25 3.63 25 7.26 25 11 C16.75 11 8.5 11 0 11 C0 7.37 0 3.74 0 0 Z " fill="#020202" transform="translate(210,1372)"/>
<path d="M0 0 C8.25 0 16.5 0 25 0 C25 3.63 25 7.26 25 11 C16.75 11 8.5 11 0 11 C0 7.37 0 3.74 0 0 Z " fill="#020202" transform="translate(181,1372)"/>
<path d="M0 0 C8.25 0 16.5 0 25 0 C25 3.63 25 7.26 25 11 C16.75 11 8.5 11 0 11 C0 7.37 0 3.74 0 0 Z " fill="#020202" transform="translate(151,1372)"/>
<path d="M0 0 C7.92 0 15.84 0 24 0 C24 3.63 24 7.26 24 11 C16.08 11 8.16 11 0 11 C0 7.37 0 3.74 0 0 Z " fill="#010101" transform="translate(1332,117)"/>
<path d="M0 0 C7.92 0 15.84 0 24 0 C24 3.63 24 7.26 24 11 C16.08 11 8.16 11 0 11 C0 7.37 0 3.74 0 0 Z " fill="#000000" transform="translate(1303,117)"/>
<path d="M0 0 C7.59 0 15.18 0 23 0 C23 3.63 23 7.26 23 11 C15.41 11 7.82 11 0 11 C0 7.37 0 3.74 0 0 Z " fill="#000000" transform="translate(1274,117)"/>
<path d="M0 0 C3.3 0 6.6 0 10 0 C10 7.92 10 15.84 10 24 C6.7 24 3.4 24 0 24 C0 16.08 0 8.16 0 0 Z " fill="#000000" transform="translate(1375,206)"/>
<path d="M0 0 C3.3 0 6.6 0 10 0 C10 7.92 10 15.84 10 24 C6.7 24 3.4 24 0 24 C0 16.08 0 8.16 0 0 Z " fill="#000000" transform="translate(123,206)"/>
<path d="M0 0 C3.3 0 6.6 0 10 0 C10 7.92 10 15.84 10 24 C6.7 24 3.4 24 0 24 C0 16.08 0 8.16 0 0 Z " fill="#000000" transform="translate(1375,147)"/>
<path d="M0 0 C3.3 0 6.6 0 10 0 C10 7.92 10 15.84 10 24 C6.7 24 3.4 24 0 24 C0 16.08 0 8.16 0 0 Z " fill="#000000" transform="translate(123,147)"/>
<path d="M0 0 C7.92 0 15.84 0 24 0 C24 3.3 24 6.6 24 10 C16.08 10 8.16 10 0 10 C0 6.7 0 3.4 0 0 Z " fill="#000000" transform="translate(181,119)"/>
<path d="M0 0 C7.92 0 15.84 0 24 0 C24 3.3 24 6.6 24 10 C16.08 10 8.16 10 0 10 C0 6.7 0 3.4 0 0 Z " fill="#010101" transform="translate(152,119)"/>
<path d="M0 0 C3.3 0 6.6 0 10 0 C10 7.59 10 15.18 10 23 C6.7 23 3.4 23 0 23 C0 15.41 0 7.82 0 0 Z " fill="#000000" transform="translate(1375,177)"/>
<path d="M0 0 C3.3 0 6.6 0 10 0 C10 7.59 10 15.18 10 23 C6.7 23 3.4 23 0 23 C0 15.41 0 7.82 0 0 Z " fill="#000000" transform="translate(123,177)"/>
<path d="M0 0 C7.59 0 15.18 0 23 0 C23 3.3 23 6.6 23 10 C15.41 10 7.82 10 0 10 C0 6.7 0 3.4 0 0 Z " fill="#000000" transform="translate(211,119)"/>
</svg>
