<svg width="33" height="44" viewBox="0 0 33 44" fill="none" xmlns="http://www.w3.org/2000/svg">
<mask id="path-1-outside-1_921_604" maskUnits="userSpaceOnUse" x="0" y="0" width="33" height="44" fill="black">
<rect fill="white" width="33" height="44"/>
<path d="M0.904 42.704V34H6.536V22.992H12.168V20.816H6.536V9.936H0.904V1.168H9.032V6.672H14.664V17.616H17.864V6.672H23.496V1.168H31.688V9.936H25.992V20.816H20.36V22.992H25.992V34H31.688V42.704H23.496V37.264H17.864V26.256H14.664V37.264H9.032V42.704H0.904Z"/>
</mask>
<path d="M0.904 42.704V34H6.536V22.992H12.168V20.816H6.536V9.936H0.904V1.168H9.032V6.672H14.664V17.616H17.864V6.672H23.496V1.168H31.688V9.936H25.992V20.816H20.36V22.992H25.992V34H31.688V42.704H23.496V37.264H17.864V26.256H14.664V37.264H9.032V42.704H0.904Z" fill="#32A17A"/>
<path d="M0.904 42.704H0.0535669V43.5544H0.904V42.704ZM0.904 34V33.1496H0.0535669V34H0.904ZM6.536 34V34.8504H7.38643V34H6.536ZM6.536 22.992V22.1416H5.68557V22.992H6.536ZM12.168 22.992V23.8424H13.0184V22.992H12.168ZM12.168 20.816H13.0184V19.9656H12.168V20.816ZM6.536 20.816H5.68557V21.6664H6.536V20.816ZM6.536 9.936H7.38643V9.08556H6.536V9.936ZM0.904 9.936H0.0535669V10.7864H0.904V9.936ZM0.904 1.168V0.317566H0.0535669V1.168H0.904ZM9.032 1.168H9.88243V0.317566H9.032V1.168ZM9.032 6.672H8.18157V7.52243H9.032V6.672ZM14.664 6.672H15.5144V5.82156H14.664V6.672ZM14.664 17.616H13.8136V18.4664H14.664V17.616ZM17.864 17.616V18.4664H18.7144V17.616H17.864ZM17.864 6.672V5.82156H17.0136V6.672H17.864ZM23.496 6.672V7.52243H24.3464V6.672H23.496ZM23.496 1.168V0.317566H22.6456V1.168H23.496ZM31.688 1.168H32.5384V0.317566H31.688V1.168ZM31.688 9.936V10.7864H32.5384V9.936H31.688ZM25.992 9.936V9.08556H25.1416V9.936H25.992ZM25.992 20.816V21.6664H26.8424V20.816H25.992ZM20.36 20.816V19.9656H19.5096V20.816H20.36ZM20.36 22.992H19.5096V23.8424H20.36V22.992ZM25.992 22.992H26.8424V22.1416H25.992V22.992ZM25.992 34H25.1416V34.8504H25.992V34ZM31.688 34H32.5384V33.1496H31.688V34ZM31.688 42.704V43.5544H32.5384V42.704H31.688ZM23.496 42.704H22.6456V43.5544H23.496V42.704ZM23.496 37.264H24.3464V36.4136H23.496V37.264ZM17.864 37.264H17.0136V38.1144H17.864V37.264ZM17.864 26.256H18.7144V25.4056H17.864V26.256ZM14.664 26.256V25.4056H13.8136V26.256H14.664ZM14.664 37.264V38.1144H15.5144V37.264H14.664ZM9.032 37.264V36.4136H8.18157V37.264H9.032ZM9.032 42.704V43.5544H9.88243V42.704H9.032ZM0.904 42.704H1.75443V34H0.904H0.0535669V42.704H0.904ZM0.904 34V34.8504H6.536V34V33.1496H0.904V34ZM6.536 34H7.38643V22.992H6.536H5.68557V34H6.536ZM6.536 22.992V23.8424H12.168V22.992V22.1416H6.536V22.992ZM12.168 22.992H13.0184V20.816H12.168H11.3176V22.992H12.168ZM12.168 20.816V19.9656H6.536V20.816V21.6664H12.168V20.816ZM6.536 20.816H7.38643V9.936H6.536H5.68557V20.816H6.536ZM6.536 9.936V9.08556H0.904V9.936V10.7864H6.536V9.936ZM0.904 9.936H1.75443V1.168H0.904H0.0535669V9.936H0.904ZM0.904 1.168V2.01843H9.032V1.168V0.317566H0.904V1.168ZM9.032 1.168H8.18157V6.672H9.032H9.88243V1.168H9.032ZM9.032 6.672V7.52243H14.664V6.672V5.82156H9.032V6.672ZM14.664 6.672H13.8136V17.616H14.664H15.5144V6.672H14.664ZM14.664 17.616V18.4664H17.864V17.616V16.7656H14.664V17.616ZM17.864 17.616H18.7144V6.672H17.864H17.0136V17.616H17.864ZM17.864 6.672V7.52243H23.496V6.672V5.82156H17.864V6.672ZM23.496 6.672H24.3464V1.168H23.496H22.6456V6.672H23.496ZM23.496 1.168V2.01843H31.688V1.168V0.317566H23.496V1.168ZM31.688 1.168H30.8376V9.936H31.688H32.5384V1.168H31.688ZM31.688 9.936V9.08556H25.992V9.936V10.7864H31.688V9.936ZM25.992 9.936H25.1416V20.816H25.992H26.8424V9.936H25.992ZM25.992 20.816V19.9656H20.36V20.816V21.6664H25.992V20.816ZM20.36 20.816H19.5096V22.992H20.36H21.2104V20.816H20.36ZM20.36 22.992V23.8424H25.992V22.992V22.1416H20.36V22.992ZM25.992 22.992H25.1416V34H25.992H26.8424V22.992H25.992ZM25.992 34V34.8504H31.688V34V33.1496H25.992V34ZM31.688 34H30.8376V42.704H31.688H32.5384V34H31.688ZM31.688 42.704V41.8536H23.496V42.704V43.5544H31.688V42.704ZM23.496 42.704H24.3464V37.264H23.496H22.6456V42.704H23.496ZM23.496 37.264V36.4136H17.864V37.264V38.1144H23.496V37.264ZM17.864 37.264H18.7144V26.256H17.864H17.0136V37.264H17.864ZM17.864 26.256V25.4056H14.664V26.256V27.1064H17.864V26.256ZM14.664 26.256H13.8136V37.264H14.664H15.5144V26.256H14.664ZM14.664 37.264V36.4136H9.032V37.264V38.1144H14.664V37.264ZM9.032 37.264H8.18157V42.704H9.032H9.88243V37.264H9.032ZM9.032 42.704V41.8536H0.904V42.704V43.5544H9.032V42.704Z" fill="url(#paint0_linear_921_604)" mask="url(#path-1-outside-1_921_604)"/>
<defs>
<linearGradient id="paint0_linear_921_604" x1="16.5" y1="-17" x2="16.5" y2="60" gradientUnits="userSpaceOnUse">
<stop stop-color="#4D4D4D"/>
<stop offset="1" stop-opacity="0.02"/>
</linearGradient>
</defs>
</svg>
